<svg version="1.1" id="Layer_1" xmlns="http://www.w3.org/2000/svg" x="0" y="0" viewBox="0 0 113.4 113.4" xml:space="preserve"><style>.st0{stroke:#000;stroke-width:.25;stroke-miterlimit:10}</style><g><path class="st0" d="M24.8 91.2c-.2-.2-.6-.2-.9 0-.2.2-.2.6 0 .9.5.5 1 1 1.6 1.4.1.1.3.1.4.1.2 0 .3-.1.5-.2.2-.3.2-.6-.1-.9-.5-.4-1-.9-1.5-1.3zM41.8 101.4c-1.4-.5-2.8-1-4.2-1.7-.3-.1-.7 0-.8.3-.1.3 0 .7.3.8 1.4.6 2.8 1.2 4.3 1.7h.2c.3 0 .5-.2.6-.4.1-.2-.1-.6-.4-.7zM50.5 103.5c-1.5-.2-3-.5-4.4-.8-.3-.1-.7.1-.7.5-.1.3.1.7.5.7 1.5.4 3 .6 4.5.8h.1c.3 0 .6-.2.6-.5s-.3-.7-.6-.7zM33.7 97.7c-1.3-.7-2.6-1.6-3.8-2.4-.3-.2-.7-.1-.9.1-.2.3-.1.7.1.9 1.2.9 2.5 1.7 3.9 2.5.1.1.2.1.3.1.2 0 .4-.1.5-.3.2-.3.1-.7-.1-.9zM57 103.9h-2.1c-.3 0-.6.2-.6.6 0 .3.2.6.6.6H57c.3 0 .6-.3.6-.6s-.2-.6-.6-.6zM54.9 9.9H57c.3 0 .6-.3.6-.6s-.3-.6-.6-.6h-2.1c-.3 0-.6.3-.6.6 0 .4.3.6.6.6zM17.6 30.2c.1.1.2.1.4.1s.4-.1.5-.3c.8-1.2 1.7-2.3 2.6-3.4.2-.3.2-.6-.1-.9-.3-.2-.6-.2-.9.1-.9 1.1-1.9 2.3-2.7 3.5-.1.3-.1.7.2.9zM23.6 23.6c.2 0 .3-.1.4-.2 1-1 2.1-2 3.2-2.9.3-.2.3-.6.1-.9-.2-.3-.6-.3-.9-.1-1.1.9-2.2 1.9-3.3 3-.2.2-.2.6 0 .9.2.1.3.2.5.2zM30.4 18.1c.1 0 .2 0 .3-.1 1.2-.8 2.4-1.6 3.7-2.3.3-.2.4-.5.2-.8-.2-.3-.5-.4-.8-.2-1.3.7-2.6 1.5-3.8 2.3-.3.2-.4.6-.2.9.2.1.4.2.6.2zM38 13.9c.1 0 .2 0 .2-.1 1.3-.6 2.7-1.1 4-1.5.3-.1.5-.5.4-.8-.1-.3-.5-.5-.8-.4-1.4.5-2.8 1-4.1 1.6-.3.1-.5.5-.3.8.1.2.4.4.6.4zM13.4 37.8c.1 0 .2.1.3.1.2 0 .5-.1.6-.4.6-1.3 1.3-2.6 2-3.8.2-.3.1-.7-.2-.8-.3-.2-.7-.1-.8.2-.7 1.3-1.4 2.6-2 3.9-.4.3-.2.6.1.8zM46.3 11.1h.1c1.4-.3 2.8-.6 4.2-.8.3 0 .6-.4.5-.7 0-.3-.4-.6-.7-.5-1.5.2-2.9.5-4.4.8-.3.1-.5.4-.5.7.2.3.5.5.8.5zM11.2 43.9h.2c.3 0 .5-.2.6-.4.2-.7.4-1.3.6-2 .1-.3-.1-.7-.4-.8-.3-.1-.7.1-.8.4-.2.7-.5 1.3-.7 2 0 .3.2.7.5.8zM95.5 85.1c-.3-.2-.7-.2-.9.1-.4.6-.8 1.1-1.3 1.6-.2.3-.2.6.1.9.1.1.3.1.4.1.2 0 .4-.1.5-.2.4-.5.9-1.1 1.3-1.7.2-.2.1-.6-.1-.8zM103.1 47.6c.1.3.3.5.6.5h.1c.3-.1.5-.4.5-.7-.3-1.5-.7-3-1.1-4.4-.1-.3-.4-.5-.8-.4-.3.1-.5.4-.4.8.5 1.3.8 2.7 1.1 4.2zM103.1 69c-.3-.1-.7.1-.8.4-.4 1.4-.9 2.8-1.4 4.2-.1.3 0 .7.4.8h.2c.2 0 .5-.2.6-.4.5-1.4 1-2.9 1.4-4.3.1-.3 0-.6-.4-.7zM104.6 60.2c-.3 0-.6.2-.7.6-.1 1.5-.3 2.9-.6 4.4-.1.3.2.7.5.7h.1c.3 0 .6-.2.6-.5.3-1.5.5-3 .6-4.5.1-.4-.2-.7-.5-.7zM100.1 77.4c-.3-.1-.7 0-.8.3-.6 1.3-1.4 2.6-2.1 3.9-.2.3-.1.7.2.8.1.1.2.1.3.1.2 0 .4-.1.5-.3.8-1.3 1.5-2.6 2.2-4 .1-.3 0-.6-.3-.8zM104.3 51.2c-.3 0-.6.3-.5.7.2 1.5.2 2.9.3 4.4 0 .3.3.6.6.6s.6-.3.6-.6c0-1.5-.1-3-.3-4.5 0-.3-.3-.6-.7-.6zM101.4 39.4c.3-.1.5-.5.3-.8-.3-.7-.6-1.3-.9-2-.1-.3-.5-.4-.8-.3-.3.1-.4.5-.3.8.3.6.6 1.3.8 1.9.1.2.3.4.6.4.1.1.2.1.3 0z"/><g><path class="st0" d="M40.7 45c-5.4-2.8-11.6-3.4-17.5-1.5-.3.1-.4.4-.3.7.1.3.4.4.7.3 5.6-1.8 11.5-1.2 16.7 1.5 5.2 2.7 9 7.3 10.8 12.8 2.2 7 .7 14.6-3.8 20.3L45 76.8c-.2-.2-.6-.3-.9-.2-.3.1-.6.4-.6.7l-1.2 6.3c-.1.3 0 .6.2.8.2.2.4.3.6.3h.2l6.3-1.2c.3-.1.6-.3.7-.6.1-.3 0-.7-.2-.9L48 79.8c4.8-5.9 6.4-14 4.1-21.4-1.9-5.8-5.9-10.6-11.4-13.4zm2.6 38.5l1.1-5.8 4.7 4.7-5.8 1.1zM37.2 87.6c.3-.1.4-.4.4-.7-.1-.3-.4-.4-.7-.4-5.6 1.6-11.5.9-16.6-1.9-5.1-2.8-8.8-7.5-10.4-13.1-2-6.9-.4-14.4 4.1-20l2.3 2.3c.2.2.4.3.6.3h.3c.3-.1.6-.4.6-.7l1.2-6.3c.1-.3 0-.6-.2-.8-.2-.2-.5-.3-.8-.2l-6.3 1.2c-.3.1-.6.3-.7.6-.1.3 0 .7.2.9l2 2c-4.8 5.8-6.5 13.7-4.4 21 1.7 5.9 5.6 10.8 10.9 13.7 3.5 1.9 7.2 2.9 11.1 2.9 2.1.1 4.3-.2 6.4-.8zM17.9 47.2L16.8 53l-4.7-4.7 5.8-1.1z"/><path class="st0" d="M14.9 65.4c0 3.3 1 6.4 2.8 8.9 0 .1.1.1.1.2 2.8 3.9 7.5 6.5 12.7 6.5 5.2 0 9.9-2.6 12.7-6.5l.1-.1c1.8-2.5 2.8-5.6 2.8-8.9 0-8.6-7-15.6-15.6-15.6-8.6-.1-15.6 6.9-15.6 15.5zM30 50.9v8.5c-2 0-4-.3-6.1-.7 2-4.7 5.3-7.7 5.4-7.7.2-.1.4-.1.7-.1zm1.7.1c.2.2 3.3 3.2 5.3 7.7-2 .4-4 .7-5.9.7v-8.5c.1 0 .4 0 .6.1zM45 64.9h-5.5c-.1-2-.5-3.8-1.1-5.5 1.5-.4 3-.9 4.5-1.5 1.3 2.1 2 4.5 2.1 7zm-2.4 8.6c-1.4-.6-2.8-1-4.2-1.4.8-2 1.2-4 1.2-6.1H45c-.1 2.7-1 5.3-2.4 7.5zm-11 6.3c0 .1 0 .1 0 0-.2.1-.4.1-.6.1V72c2 0 3.9.3 5.9.7-1.1 2.5-2.9 4.9-5.3 7.1zm-2.1.1c-2.4-2.4-4.2-4.7-5.4-7.2 1.9-.4 3.9-.7 5.8-.7v7.9h-.4zM16 66h5.4c.1 2.1.5 4.1 1.3 6.1-1.4.4-2.9.9-4.3 1.4-1.5-2.2-2.3-4.8-2.4-7.5zm14 0v5c-2.1 0-4.1.3-6.2.8-.8-1.9-1.2-3.9-1.3-5.8H30zm0-1.1h-7.5c.1-1.9.5-3.7 1-5.2 2.2.5 4.3.8 6.5.8v4.4zm1 6.1v-5h7.5c0 2-.4 3.9-1.2 5.8-2.1-.5-4.2-.8-6.3-.8zm7.5-6.1H31v-4.4c2.1 0 4.2-.3 6.3-.8.6 1.6 1.1 3.3 1.2 5.2zm-17.1 0H16c.1-2.5.8-4.9 2.1-7 1.5.6 2.9 1.1 4.4 1.5-.6 1.7-1.1 3.5-1.1 5.5zm1.7 8.1c1.1 2.3 2.7 4.5 4.8 6.7-3.6-.7-6.7-2.6-8.9-5.4 1.4-.5 2.8-.9 4.1-1.3zm10.2 6.7c2.1-2.1 3.6-4.4 4.7-6.7 1.3.3 2.6.8 4 1.3-2.2 2.8-5.2 4.7-8.7 5.4zM38 58.4c-1.4-3.4-3.4-5.9-4.6-7.3 3.7.7 6.9 2.9 9 5.8-1.5.7-3 1.2-4.4 1.5zm-10.5-7.2c-1.2 1.3-3.3 3.8-4.7 7.2-1.4-.4-2.8-.8-4.2-1.4 2.1-2.9 5.3-5 8.9-5.8z"/></g><path class="st0" d="M90.1 89.9c-1.4-.9-2.9-1.2-4.5-1-.3-1.3-1-2.5-1.9-3.5-1.3-1.3-3-2.1-4.7-2.1h-.3c-.1-1.1-.3-2.2-.6-3.4.1-.7 1.2-6.1 7.5-12.1.8.9 2 1.5 3.3 1.6h.7c1.9 0 3.5-.6 4.8-1.8 2.8-2.5 4.3-9.4 4.4-9.7.1-.3-.1-.5-.4-.6h-.1c-.3 0-7.4-.6-10.6 1.3-1.7 1-2.8 2.6-3.3 4.7-.3 1.3-.1 2.6.6 3.7-4.8 4.5-6.7 8.7-7.4 11-.8-2.2-2-4.1-3.6-5.6.1-.1.1-.3.2-.4.7-2 .3-4.2-1.1-5.8-.9-1-2.1-1.7-3.4-2.1-3.7-1.1-10.7 1.3-11 1.4 0 0-.1 0-.1.1-.2.1-.3.4-.2.7.1.3 3.5 6.8 7 8.6 1 .5 2.1.8 3.3.8.3 0 .6 0 .9-.1 1.6-.2 2.9-1 3.8-2.2 1.6 1.6 2.7 3.6 3.5 5.9.5 1.4.7 2.9.8 4.2-1.2.3-2.3.9-3.2 1.7-.5-.3-1-.5-1.5-.6-1.7-.5-3.4-.2-4.9.7-1.6 1-2.8 2.6-3.4 4.5-1.1-.2-2.3 0-3.6.4-4.7 1.6-4.2 9.1-4.1 9.5 0 .3.3.5.5.5.3 0 .5-.3.5-.6s-.4-7 3.4-8.4c1.4-.5 2.5-.6 3.5-.3.2 0 .3 0 .4-.1.1-.1.2-.2.2-.4.4-1.8 1.5-3.3 3-4.2 1.3-.8 2.7-1 4.1-.6.5.2 1.1.4 1.5.7.2.1.5.1.7-.1.8-.8 1.7-1.4 2.8-1.7.1 2.5-.2 4.6-.4 5.5-1.4-.2-3.8.2-4.6 1.4-.2.2-.1.6.2.7.2.2.6.1.7-.2.6-.9 3-1.2 4-.9 1 .3 1.9.9 2.4 1.7.1.1.3.2.4.2.1 0 .2 0 .3-.1.2-.2.3-.5.1-.7-.6-.8-1.5-1.5-2.5-1.9.2-.9.5-3.2.4-5.9H78.9c1.5 0 2.8.6 3.9 1.7.9.9 1.5 2.1 1.7 3.5 0 .2.1.3.3.4.1.1.3.1.5 0 1.4-.3 2.8 0 4 .7 1.4.9 2.4 2.5 2.8 4.4 0 .2.1.5.1.7 0 .3.3.5.6.5s.5-.3.5-.6-.1-.5-.1-.8c-.3-2-1.4-3.8-3.1-4.9zm-4.7-26.2c.4-1.8 1.4-3.1 2.8-4 1.8-1.1 5-1.3 7.4-1.3.8 0 1.5 0 2 .1-.4 1.7-1.9 6.7-3.9 8.6-1.3 1.1-2.9 1.6-4.7 1.5-1-.1-1.9-.5-2.6-1.2 1.9-1.7 4.2-3.5 7.1-5.2.2-.1.3-.5.2-.7-.1-.2-.5-.3-.7-.2-2.9 1.7-5.2 3.5-7.1 5.2-.6-1-.7-1.9-.5-2.8zM65.8 74c-2.6-1.3-5.3-6-6.2-7.6 1.7-.5 7-2.1 9.8-1.2 1.1.3 2.1 1 2.9 1.8 1.2 1.3 1.5 3.1.9 4.7-1.7-1.5-3.7-2.6-6-3.5-.3-.1-.6 0-.7.3-.1.3 0 .6.3.7 2.3.9 4.3 2 5.9 3.5-.7 1.1-1.9 1.8-3.2 1.9-1.3.2-2.6 0-3.7-.6z"/><g><path class="st0" d="M88.4 15.8c.1 0 .2.1.2.1.2 0 .4-.1.5-.3.1-.3 0-.6-.2-.7-.3-.1-.6 0-.7.2-.2.2-.1.5.2.7z"/><path class="st0" d="M49.7 23.3c.2.6.5 1.1 1 1.3.3.1.6.2.9.2.6 0 1.3-.2 2.2-.6.7-.3 1.3-.7 1.9-1.1 1.1-.7 2.1-1.3 3-1.3h2.5c-2.1 1.9-3.9 4.2-4.8 6.5-.4 1.1-.7 2-1 2.9-.2 1-.4 1.9-.5 2.7-1 0-3 .1-4.8 1.5-2.3 1.8-2.7 2.7-2.7 5.4 0 1 .1 1.9.3 2.6v.1c.4 1.5 1.2 2.3 2.4 2.3 1 0 1.7-.5 2.4-1.1.6-.4 1.3-.9 2.2-1.2.2 3 .7 3.7 1.2 4 .8.4 3.8.5 6.8.5 1.1 0 2.2 0 3.1-.1-.4.5-1 1.2-1.9 1.7-2.2 1.3-2.9 3-2 5.1.7 1.5 2.2 1.9 3.6 1.9.9 0 1.7-.1 2.3-.2.7-.1 2.2-.4 3.7-1.1 1.2-.5 2.3-1.3 3.1-2.5 1.4-2.2 1.9-5.2 1.6-6.9 2.1-.9 4.2-2.1 5.9-3.9 2.7-2.8 3.4-5.5 3.4-7.9 1.9-.1 2.2.4 2.6 1.8.3.9.4 2.3.5 3.9.1 1.5.3 3.2.5 4.6.3 1.4.8 2.3 1.6 2.4h.3c.9 0 1.9-.8 3-2.5 1.3-1.9 1.8-3.4 2-5.6v-.1c.1-1.1.1-2.5.1-4.1V34v-.1c-.1-3-.5-4.8-1.4-6.2v-.1c-.5-.7-1.1-1.3-1.8-1.9-1.9-1.5-6.5-1.1-8.1-.8 0-.2-.1-.5-.1-.7 2.4-.8 4.7-2.7 6-4.9 1.1-1.8 1.1-3.6 1.1-4.4.3-.2.7-.6.9-1 .3-.8-.1-2-1.4-2.6-.7-.3-3-1.4-5-.7-1.4.5-3.3 1.2-4.9 2.5-1.3 1-2.7 3.6-3.2 4.5-1.8-.4-3.9-.5-6-.4-.5-.9-1.7-2.9-3.4-4.3l-.3-.3c-1.6-1.2-3.5-1-5.2-.5-.8.2-1.6.5-2.3.8-.2.1-.3.1-.5.2-2.3.9-5.3 2.8-7.5 4.9-2.6 2.4-3.6 4-3.3 5.3zM82.2 14c1.5-1.2 3.3-1.9 4.6-2.4 1.2-.5 3 0 4.2.6.8.4 1 1.1.9 1.3-.1.2-.5.5-.7.7-.2.1-.3.3-.3.5 0 0 .2 2.1-.9 4s-3.2 3.6-5.3 4.3c-.1-.5-.2-.9-.3-1.2-.6-1.5-2.8-2.9-2.9-3-.6-.4-1.3-.7-2.1-.9.5-1 1.7-3.1 2.8-3.9zm13.2 19.1c-1-.2-1.8-.2-2.2-.2-.9-.9-1-2.2-1-2.7.4-.3 1.3-1.2 2.2-1.7.5 1 .9 2.4 1 4.6zm-1.1 9c-.5-.2-1.2-.7-1.5-1.8-.3-1.1.1-1.9.3-2.2.4.1 1.3.3 2.1.7-.1 1.3-.4 2.3-.9 3.3zm-1-5c-.6-1.5-.3-2.6-.1-3.1.4 0 1.3.1 2.1.2v.1c0 1.3 0 2.4-.1 3.4-.7-.4-1.5-.6-1.9-.6zm-1.8-7.8c-.9-.4-1.4-.9-1.6-1.1.2-.9.6-2 1-2.4.7.1 1.2.3 1.6.6.5.4.9.8 1.3 1.2-1 .6-1.8 1.3-2.3 1.7zm-1.8-3.7c-.4.8-.7 1.7-.8 2.3-.8.1-1.7-.1-1.7-.1-.3-.1-.6.1-.6.4-.1.3.1.6.4.6 0 0 1.1.3 2.1.1.3.4 1 1 2 1.4 0 .7.1 2.2 1.2 3.2-.3.7-.6 2.1 0 3.9-.4.5-1 1.6-.5 3.2.4 1.4 1.4 2.1 2 2.4-.1.2-.2.4-.4.6-1.1 1.6-1.9 2.1-2.2 2.1-.3-.1-.6-.7-.8-1.6-.3-1.4-.4-3-.5-4.5-.1-1.7-.3-3.2-.5-4.1-.6-1.9-1.5-2.6-3.7-2.5 0-.7-.1-1.4-.2-2 0-.4-.1-.9-.1-1.3l-.1-1c-.1-1-.1-2-.2-2.9 1.2-.2 3-.3 4.6-.2zM73.9 52.2c-.3.5-.8 1-1.3 1.3.3-.7.6-1.6.7-2.3 0-.3-.2-.6-.4-.6-.3 0-.6.2-.6.4-.2 1.1-1 2.8-1.3 3.4-1 .5-2.1.7-2.8.8.6-.7 1.4-1.8 1.9-3.1.1-.3 0-.6-.3-.7-.3-.1-.6 0-.7.3-.8 1.9-2.2 3.3-2.6 3.7-1 .1-2 .1-2.7-.3.8-.5 2.2-1.5 2.9-2.5.2-.2.1-.6-.1-.7-.2-.2-.6-.1-.7.1-.6.9-2.1 1.9-2.8 2.3 0-.1-.1-.1-.1-.2-.7-1.6-.2-2.7 1.6-3.8 1.6-.9 2.3-2.1 2.6-2.7h.1c1.7-.1 4.8-.5 8-1.6.3 1.7-.1 4.2-1.4 6.2zm-6.6-5.4c-4.1.2-10 .1-10.8-.3-.1-.1-.6-.6-.7-4.2.4.7 1 1.4 1.7 1.9 1.1.7 3.5 1 5.6 1 1.4 0 2.7-.1 3.6-.4.5-.1.8-.3 1-.5.9.1 3.4.2 5.7-.5 2.5-.8 4-2.7 4.3-3.2.5-.2 2.3-1.2 3.3-2.8 1.1-1.7 1-3.8.9-4.3.2-.5.7-2.2.7-4.6.1-2.2-.5-3.7-.8-4.3.2-.6.7-2 .6-3.6.4.4.8.8 1 1.3.5 1.2.7 3.8.8 6.6l.1 1c0 .4.1.9.1 1.3.3 3 .6 6.4-2.9 10.1-4.4 4.5-11.4 5.4-14.2 5.5zm-18.5-3.4c.3-.3.8-.8 1.9-1.5.2-.2.3-.5.2-.7-.2-.2-.5-.3-.7-.2-.7.4-1.2.8-1.6 1.2-.1-.4-.1-.9-.1-1.5v-.3c.3-.3 1-.9 2.1-1.4.3-.1.4-.4.3-.7-.1-.3-.4-.4-.7-.3-.7.3-1.2.6-1.6.9.2-1 .8-1.6 2.2-2.7 1.5-1.2 3.2-1.3 4-1.3-.1.9-.1 1.8-.1 2.7v4.7c-1.2.4-2.1 1-2.8 1.5-.6.5-1.2.9-1.8.9-.5 0-1-.4-1.3-1.3zm6.3-21.2c-.6.4-1.2.7-1.8 1-.9.5-1.7.6-2.1.4-.2-.1-.4-.3-.4-.6-.1-.4.1-1.1 1-2.2.4.3 1 .6 1.7.6.4 0 .8-.1 1.3-.3 1.2-.6 1.7-1.5 2-2 .5.1 1.4.1 2.3-.3 1-.4 1.5-1.2 1.7-1.7.5 0 1.2 0 2-.2.7-.3 1.3-.8 1.6-1.2.4.2 1.2.4 2.1.4.1.7.2 1.8.1 2.3-.3.1-.6.3-.9.4 0 0-.1 0-.1.1-1.1.6-2.3 1.3-3.3 2.2-.6-.3-1.5-.3-2.6-.2h-.8c-1.4-.2-2.5.5-3.8 1.3zm25.8-2.5c.1.1.2.1.3.2.3 1.5.1 2.9-.2 3.7-1-.9-2.5-1.9-3.2-2.4.3-1.2.7-2 .9-2.5 1 .4 1.7.7 2.2 1zm-.7 17.5c-.8 1.2-2.1 2-2.7 2.3-.6-.7-2.3-2.5-4.2-4.1-2-1.8-4.5-3-5.3-3.4-.1-1.5 0-4.1 0-5 1.6-.4 4.5-.4 5.3-.4.6.4 2.7 2.1 4.1 3.5 1.4 1.4 3.1 3.2 3.5 3.6.1.5.2 2.2-.7 3.5zM55.8 39v-.3-1c0-2 .1-3.7.5-5.8 3.1.7 5.6 2.3 6.3 2.8 0 .7.1 2.6.2 3.9-.9.5-3.3 1.9-5.1 4.4-1.5-1.3-1.9-3.7-1.9-4zm7.4.5c.7.6 2.8 2.4 3.7 4.1-1 .6-6.1.8-8.3-.1 1.6-2.2 3.8-3.5 4.6-4zm4.7 3.7c-1-2-3.4-4-4.1-4.6-.1-1.3-.1-3.3-.2-4 .8-.6 2.9-1.4 3.9-1.7.7.3 3.2 1.5 5.2 3.3 1.8 1.6 3.4 3.3 4.1 4-.5.6-1.7 2-3.6 2.6-2.2.6-4.5.5-5.3.4zm9.3-21.1c.6.4 2.8 1.9 3.7 2.8.1.3.8 1.7.8 3.9 0 1.5-.3 2.8-.5 3.5-.7-.8-2-2.1-3-3.1-1.4-1.4-3.5-3-4.1-3.5v-3c1.3-.5 2.6-.6 3.1-.6zm-17.4-5.5c-.1.3-.4.9-1.1 1.1-.9.4-1.7.2-2 .2-.3-.3-.6-.7-.8-1 1-.7 2-1.4 3-1.9.2.5.5 1.2.9 1.6zm6 3.1c3.1.7 6.3 2.4 7.2 2.9v2.8c-1.2 0-3.8.1-5.3.5-.8-.4-4-1.8-6.9-2.4 1.5-1.5 3.3-2.8 5-3.8zm-5.9 4.9c2.7.4 6.1 1.8 7.1 2.3 0 .9-.1 3.5 0 5.1-.9.3-2.8 1.1-3.9 1.8-.9-.6-3.4-2.1-6.5-2.9.2-.7.4-1.5.8-2.3.5-1.3 1.4-2.7 2.5-4zm17-3.6c-.7.1-2 .2-3.3.8-.8-.4-3.3-1.9-6.2-2.7l.9-.3c1.6-.4 3.4-.5 5.2-.5 1.5 0 3 .1 4.3.4-.3.5-.7 1.3-.9 2.3zm-8.8-3.2c-.2 0-.3.1-.5.1 0-.7-.1-1.7-.2-2.2.6-.4 1.1-1 1.4-1.5 1.1 1 1.9 2.3 2.4 3.1-1.1.1-2.2.2-3.1.5zm-.2-4.3c-.3.6-.8 1.4-1.5 1.5-.9 0-1.6-.2-1.9-.4-.3-.5-.4-1.2-.5-1.6 1.4-.3 2.8-.3 3.9.5zm-6.5.4c.5-.2 1.1-.4 1.7-.6.1.4.2 1.1.5 1.6-.2.3-.6.7-1.2.9-.7.3-1.4.2-1.8.2-.3-.4-.6-1-.8-1.5.4-.2.7-.3 1-.4.2-.1.4-.1.6-.2zm-6.3 3.7c.2.3.4.7.7 1-.2.4-.6 1.1-1.6 1.6-.9.5-1.7 0-2-.3l.6-.2.8-.8c.5-.5 1-.9 1.5-1.3z"/></g></g></svg>