<svg xmlns="http://www.w3.org/2000/svg" viewBox="0 0 113.4 113.4">
<g>
<path d="M 17.8 32 c 0.4 0.1 0.8 0.5 0.9 0.9 l 0.7 2.4 c 0.4 1.2 2.1 1.2 2.5 0 l 0.7 -2.4 c 0.1 -0.4 0.5 -0.8 0.9 -0.9 l 2.4 -0.7 c 1.2 -0.4 1.2 -2.1 0 -2.5 l -2.4 -0.7 c -0.4 -0.1 -0.8 -0.5 -0.9 -0.9 l -0.7 -2.4 c -0.4 -1.2 -2.1 -1.2 -2.5 0 l -0.7 2.4 c -0.1 0.4 -0.5 0.8 -0.9 0.9 l -2.4 0.7 c -1.2 0.4 -1.2 2.1 0 2.5 l 2.4 0.7 z"/>
<path d="M 99.5 90.7 l -2.3 -0.7 c -0.4 -0.1 -0.8 -0.5 -0.9 -0.9 l -0.7 -2.4 c -0.4 -1.2 -2.1 -1.2 -2.5 0 l -0.7 2.4 c -0.1 0.4 -0.5 0.8 -0.9 0.9 l -2.4 0.7 c -1.2 0.4 -1.2 2.1 0 2.5 l 2.4 0.7 c 0.4 0.1 0.8 0.5 0.9 0.9 l 0.7 2.4 c 0.4 1.2 2.1 1.2 2.5 0 l 0.7 -2.4 c 0.1 -0.4 0.5 -0.8 0.9 -0.9 l 2.4 -0.7 c 1.2 -0.3 1.2 -2.1 -0.1 -2.5 z"/>
<circle cx="29.3" cy="16.3" r="2.1"/>
<circle cx="88" cy="77.6" r="2.1"/>
<path d="M 94.3 54.3 c 1 -0.4 1.4 -1.5 1 -2.5 c -1.9 -4.5 -4.7 -8.5 -9.1 -13 l -0.1 -0.1 c -1.1 -1 -2.2 -1.8 -3.7 -2.6 c -2 -1.3 -3.8 -2.3 -5.7 -3 c -0.1 0 -0.2 -0.1 -0.2 -0.1 c -0.6 -0.2 -1.2 -0.3 -1.8 -0.5 c -1.6 -0.5 -3.3 -0.9 -5.2 -1.1 c -2.6 -0.2 -5.1 0 -7.8 0.6 c -2.4 0.4 -4.3 1.5 -6.1 2.5 c 0 0 -0.1 0 -0.1 0.1 c -2.6 1.6 -4.3 3.8 -5.7 5.7 c -2.3 3.3 -2.8 7.6 -1.2 11.2 c 0.3 0.6 0.6 1.2 0.9 1.7 c -0.2 0.4 -0.3 0.8 -0.4 1.2 H 49 c -0.4 -0.2 -0.9 -0.6 -1.4 -0.9 c -0.2 -0.1 -0.4 -0.3 -0.5 -0.4 c -0.5 -0.5 -0.9 -1.3 -1.3 -2.1 c -0.2 -0.3 -0.3 -0.6 -0.5 -1 c -0.3 -0.5 -0.4 -1.3 -0.6 -2.1 c -0.5 -2.9 -0.1 -5.7 1.2 -8.6 c 2.7 -5.7 7.9 -9.9 14.6 -11.7 C 66.9 25.9 74 26.4 80 29 c 1 0.4 2.1 0 2.5 -1 c 0.4 -1 0 -2.1 -1 -2.5 c -6.8 -3 -14.9 -3.5 -22 -1.6 c -7.8 2.1 -13.9 7 -17.1 13.8 c -1.6 3.6 -2.1 7.3 -1.5 10.9 v 0.1 c 0.2 1.1 0.4 2.2 0.9 3.2 c 0 0 0 0.1 0.1 0.1 c 0.2 0.3 0.3 0.6 0.5 0.9 c 0.6 1.1 1.2 2.2 2.1 3.1 l 0.2 0.2 c 0.2 0.1 0.4 0.3 0.5 0.4 c 0.6 0.5 1.4 1.1 2.3 1.5 c 0.5 0.2 1 0.4 1.6 0.6 c 0.1 0.5 0.3 1 0.6 1.5 h -0.4 c -0.3 0 -0.6 0.1 -0.9 0.1 c -0.8 0.1 -1.7 -0.2 -2.7 -0.5 c -0.4 -0.1 -0.8 -0.3 -1.3 -0.4 c -1.1 -0.4 -2.1 -1.2 -3.1 -2.1 c -0.2 -0.2 -0.4 -0.3 -0.6 -0.5 c -0.8 -0.8 -1.4 -1.7 -2.1 -2.8 c -0.3 -0.6 -0.5 -1.2 -0.8 -1.8 c -0.3 -0.6 -0.5 -1.2 -0.8 -1.8 c -0.5 -1.5 -0.7 -3.1 -0.8 -4.7 c -0.2 -1.5 0 -3.2 0.4 -5.4 v -0.1 c 0.1 -0.9 0.4 -1.7 0.7 -2.6 c 0.1 -0.4 0.3 -0.8 0.4 -1.2 c 3.7 -9.5 11.2 -14.1 16.8 -16.4 c 4.7 -1.9 10 -2.8 15.3 -2.6 c 5.3 0.2 10.6 1.4 15.1 3.6 c 1 0.5 2.1 0.1 2.6 -0.9 s 0.1 -2.1 -0.9 -2.6 c -5 -2.4 -10.8 -3.8 -16.7 -4 c -5.8 -0.2 -11.7 0.8 -16.9 2.9 C 44 20 37.2 26.6 34 35 c 0 0.1 0 0.1 -0.1 0.2 c -0.1 0.4 -0.2 0.7 -0.4 1.1 c -0.3 1 -0.7 2.1 -0.8 3.3 c -0.5 2.6 -0.6 4.5 -0.4 6.4 c 0.2 1.8 0.4 3.7 1 5.6 c 0 0.1 0 0.1 0.1 0.1 c 0.3 0.7 0.6 1.3 0.9 2 c 0.3 0.6 0.6 1.2 0.8 1.9 c 0 0.1 0.1 0.2 0.2 0.3 c 0.8 1.2 1.6 2.5 2.7 3.6 l 0.1 0.1 c 0.2 0.2 0.4 0.3 0.6 0.5 c 1.2 1.1 2.6 2.3 4.5 2.9 h 0.1 c 0.4 0.1 0.7 0.2 1.1 0.3 c 1.1 0.3 2.2 0.7 3.6 0.7 h 0.9 c 0.2 0 0.5 -0.1 0.8 -0.1 c 0.9 -0.1 1.9 -0.2 2.9 -0.7 c 1.1 0.6 2.4 1 3.8 1 c 1.7 0 3.3 -0.6 4.6 -1.5 v 0.2 c 0.1 1.3 -0.3 2.7 -0.8 4.3 c -0.8 1.8 -2.1 3.4 -3.9 4.7 c -6.4 4.8 -12.9 4.3 -17.2 3 c -3.9 -1.2 -7.8 -3.4 -11 -6.6 c -3.3 -3.1 -5.8 -6.8 -7.2 -10.8 c -0.4 -1 -1.5 -1.5 -2.5 -1.1 c -1 0.4 -1.5 1.5 -1.1 2.5 c 3.4 9.3 11.6 17 20.8 19.7 c 2.3 0.7 4.6 1 6.9 1 c 4.9 0 9.6 -1.6 13.7 -4.6 c 2.4 -1.7 4.2 -3.9 5.2 -6.4 v -0.1 c 0.6 -1.9 1.3 -3.8 1 -6 c -0.1 -1.5 -0.5 -2.8 -1 -3.9 c 0.2 -0.6 0.3 -1.1 0.3 -1.7 c 1.4 0.9 2.6 2.3 3.2 3.9 c 0.3 0.8 0.5 1.5 0.7 2.3 c 0.5 2.9 0.1 5.7 -1.2 8.6 c -0.2 0.4 -0.4 0.7 -0.6 1.1 c -0.5 0.9 -0.9 1.7 -1.5 2.4 c 0 0 0 0.1 -0.1 0.1 c -2.3 3.2 -5.4 5.5 -9.3 7.2 c -2.1 0.8 -3.6 1.3 -5.3 1.6 c -2.9 0.4 -5.1 0.5 -7.4 0.4 c -3.7 -0.4 -6.9 -1.2 -10 -2.4 c -1 -0.4 -2.1 0.1 -2.5 1.1 c -0.4 1 0.1 2.1 1.1 2.5 c 3.4 1.4 7.1 2.2 11.1 2.7 h 0.1 c 0.7 0.1 1.5 0.1 2.2 0.1 c 1.8 0 3.8 -0.2 6 -0.5 h 0.1 c 2.5 -0.5 4.4 -1.1 6.1 -1.8 c 4.6 -2 8.2 -4.7 10.9 -8.4 c 0.8 -1 1.3 -2 1.9 -3 c 0.2 -0.4 0.4 -0.7 0.6 -1.1 c 0 -0.1 0.1 -0.1 0.1 -0.2 c 1.6 -3.6 2.1 -7.3 1.5 -10.9 v -0.1 c -0.2 -1 -0.4 -1.9 -0.9 -3 c -1.3 -3.4 -4.3 -6.1 -7.7 -7 c -0.1 0 -0.3 -0.1 -0.4 -0.1 c -0.2 -0.4 -0.5 -0.7 -0.8 -1 c 1.9 -0.7 4.1 -0.6 5.9 0.2 c 1.4 0.6 2.6 1.7 3.9 2.7 c 0.7 0.7 1.3 1.5 1.8 2.3 c 2.1 3.3 3 7.2 2.8 11.7 c -0.2 1.9 -0.6 3.9 -1.4 6.3 c -0.9 2 -1.8 4 -3 5.7 l -0.3 0.3 c -1.4 1.7 -2.6 3.2 -4.1 4.6 c -2.2 2 -4.6 3.7 -7.8 5.2 c -1.6 0.7 -3.2 1.2 -4.9 1.8 c -0.7 0.2 -1.4 0.3 -2.1 0.4 c -0.8 0.1 -1.6 0.3 -2.4 0.5 c -2.7 0.5 -5.2 0.7 -7.9 0.5 c -5.1 -0.4 -10.3 -1.6 -15 -3.7 c -1 -0.4 -2.1 0 -2.5 1 c -0.4 1 0 2.1 1 2.5 c 5.1 2.2 10.8 3.6 16.3 4 c 0.8 0.1 1.5 0.1 2.3 0.1 c 2.2 0 4.4 -0.2 6.7 -0.7 h 0.1 c 0.7 -0.2 1.4 -0.3 2.2 -0.5 c 0.8 -0.1 1.6 -0.3 2.4 -0.5 h 0.1 c 1.7 -0.6 3.5 -1.2 5.3 -2 h 0.1 c 3.5 -1.7 6.2 -3.6 8.7 -5.9 c 1.7 -1.5 3.1 -3.2 4.5 -5 l 0.3 -0.4 l 0.1 -0.1 c 1.4 -2.1 2.5 -4.3 3.4 -6.4 c 0 -0.1 0.1 -0.1 0.1 -0.2 c 0.9 -2.7 1.4 -5.1 1.6 -7.3 v -0.1 c 0.2 -5.3 -0.9 -10 -3.3 -13.9 c -0.6 -1.1 -1.5 -2.1 -2.4 -3 l -0.1 -0.1 c -1.4 -1.2 -2.9 -2.5 -4.9 -3.4 c -3.3 -1.5 -7.2 -1.4 -10.3 0.3 c -0.4 0.2 -0.8 0.5 -1.1 0.7 c -0.5 -0.1 -1.1 -0.2 -1.6 -0.2 c -1.6 0 -3.1 0.5 -4.4 1.3 c 0 0 0 -0.1 -0.1 -0.1 c -1 -2.4 -0.7 -5.3 0.8 -7.5 c 1.6 -2.2 3 -3.6 4.6 -4.6 c 1.6 -0.9 3.1 -1.7 4.9 -2.1 h 0.1 c 2.3 -0.5 4.5 -0.7 6.7 -0.5 c 1.5 0.1 2.9 0.5 4.5 1 c 0.6 0.2 1.2 0.3 1.8 0.5 c 1.6 0.7 3.2 1.5 4.9 2.6 c 0 0 0.1 0 0.1 0.1 c 1.2 0.7 2.1 1.4 3.1 2.2 c 4 4.1 6.6 7.7 8.2 11.7 c 0.4 0.8 1.5 1.3 2.5 0.9 z"/>
<path d="M 26.3 83.1c.7 0 1.3-.3 1.7-1 .5-.9.2-2.1-.7-2.6l-1.1-.6c-.9-.5-2.1-.2-2.6.7-.5.9-.2 2.1.7 2.6l1.1.6c.2.2.5.3.9.3z"/>
<path d="M 17.7 54.3c1-.2 1.7-1.2 1.5-2.3l-.2-.9c-.2-1-1.2-1.7-2.3-1.5-1 .2-1.7 1.2-1.5 2.3l.2.9c.2.9 1 1.5 1.9 1.5h.4z"/>
<path d="M 94.9 56.9a2 2 0 0 0 -1.4 2.3l.2.7c.2 .9 1 1.4 1.9 1.4.2 0 .3 0 .5-.1a2 2 0 0 0 1.4-2.3l-.2-.7c-.3-1-1.4-1.6-2.4-1.3z"/>
<path d="M 90.9 24.1l1.7 1.1c.3.2.7.3 1 .3.6 0 1.3-.3 1.6-.9.6-.9.3-2.1-.6-2.6l-1.7-1.1c-.9-.6-2.1-.3-2.6.6-.6.8-.3 2 .6 2.6z"/>
<path d="M 100.3 26l-.2-.2c-.8-.7-2-.5-2.7.3-.7.8-.5 2 .3 2.7l.2.2c.4.3.8.4 1.2.4.6 0 1.1-.2 1.5-.7.6-.8.5-2-.3-2.7z"/>
<path d="M 21 86.7l-1.9-1c-.9-.5-2.1-.1-2.6.8s-.1 2.1.8 2.6l1.9 1c.3.1.6.2.9.2.7 0 1.4-.4 1.7-1 .5-.9.2-2.1-.8-2.6z"/>
<path d="M 13.8 82.4l-.5-.3c-.9-.6-2.1-.4-2.7.5-.6.9-.4 2.1.5 2.7l.5.3c.3.2.7.3 1.1.3.6 0 1.2-.3 1.6-.8.6-.9.4-2.1-.5-2.7z"/>
</g>
</svg>