<svg version="1.1" id="Layer_1" xmlns="http://www.w3.org/2000/svg" x="0" y="0" viewBox="0 0 113.4 113.4" xml:space="preserve"><style>.st0{fill:none;stroke-width:3;stroke-linecap:round}.st0,.st1{stroke:#000;stroke-miterlimit:10}</style><g><path class="st0" d="M95.1 58.5h6.3v42c0 3.7-3 6.8-6.8 6.8H18.4c-3.7 0-6.8-3-6.8-6.8v-42h6.3"/><path class="st0" d="M37.1 48.6v44.1c0 3.6-2.9 6.6-6.6 6.6-3.6 0-6.6-2.9-6.6-6.6V48.6h-.5c-1.3 0-2.3-1-2.3-2.3v-4.8h18.6v4.8c0 1.3-1 2.3-2.3 2.3h-7"/><path class="st1" d="M28.5 69.7v23c0 1.1.9 2 2 2s2-.9 2-2V67.5c-1.1 1-2.5 1.7-4 2.2z"/><path class="st0" d="M63 48.6v44.1c0 3.6-2.9 6.6-6.6 6.6-3.6 0-6.6-2.9-6.6-6.6V48.6h-.5c-1.3 0-2.3-1-2.3-2.3v-4.8h18.6v4.8c0 1.3-1 2.3-2.3 2.3h-7"/><path class="st1" d="M54.5 69.7v23c0 1.1.9 2 2 2s2-.9 2-2V67.5c-1.2 1-2.5 1.7-4 2.2z"/><path class="st0" d="M89 48.6v44.1c0 3.6-2.9 6.6-6.6 6.6-3.6 0-6.6-2.9-6.6-6.6V48.6h-.5c-1.3 0-2.3-1-2.3-2.3v-4.8h18.6v4.8c0 1.3-1 2.3-2.3 2.3h-7"/><path class="st1" d="M80.4 69.7v23c0 1.1.9 2 2 2s2-.9 2-2V67.5c-1.1 1-2.5 1.7-4 2.2z"/><g><path class="st0" d="M65.2 20.1l.1-12.8 31.9.1c2.5 0 4.5 2 4.5 4.5v3.8c0 2.5-2 4.5-4.5 4.5l-32-.1zM34.3 17.4h30.9V9.9H34.3c-2.1 0-3.7 1.7-3.8 3.7 0 2.2 1.7 3.8 3.8 3.8z"/></g><path class="st1" d="M35.2 31c0-3.8-4.7-8.5-4.7-8.5s-4.7 4.8-4.7 8.5c0 2.6 2.1 4.7 4.7 4.7s4.7-2.1 4.7-4.7z"/></g></svg>