<svg version="1.1" id="Layer_1" xmlns="http://www.w3.org/2000/svg" x="0" y="0" viewBox="0 0 113.4 113.4" xml:space="preserve"><style>.st0{stroke-linejoin:round}.st0,.st1{fill:#fff;stroke:#000;stroke-width:2;stroke-miterlimit:10}</style><g><path class="st0" d="M50 10.1c3.5-.9 7.2-1.4 11-1.4 24.3 0 43.9 19.7 43.9 43.9 0 24.3-19.7 43.9-43.9 43.9-1.7 0-3.3-.1-4.9-.3"/><path class="st0" d="M106 55.4h-7.5l-4.3-6.5h-4.3l-2.2 2.2h-6.5L70.3 40.2H56.1v-4.3c0-4.8 2.9-8.7 7.7-8.7h4.3l4.3-4.3h10.8l4.8-4.3M72.5 81.4H67V66.3l-5.4-4.4H54v-6.5l5.5-6.5h10.8l11.9 10.9v13z"/><path class="st1" d="M17.1 22.9H8.4M17.1 35.9H8.4M17.1 48.9H8.4M17.1 61.9H8.4M34.5 27.2v62.9M43.1 75.5V20.7c0-4.8-3.9-8.7-8.7-8.7-4.8 0-8.7 3.9-8.7 8.7v54.8c-3.9 2.7-6.5 7.3-6.5 12.4 0 8.4 6.8 15.2 15.2 15.2s15.2-6.8 15.2-15.2c0-5.1-2.5-9.7-6.5-12.4z"/></g></svg>