<svg version="1.1" id="Layer_1" xmlns="http://www.w3.org/2000/svg" x="0" y="0" viewBox="0 0 113.4 113.4" xml:space="preserve"><style>.st0{fill:#010101}</style><g><path class="st0" d="M104.5 64.1l-2.7-.4c.3-2.2.5-4.4.5-6.5 0-6.3-1.3-12.3-3.7-18l2.5-1.1c2.6 6.1 4 12.5 4 19.1-.1 2.3-.3 4.6-.6 6.9z"/><path class="st0" d="M99.6 72.3c-1.4 0-2.6-.9-3.4-2.5-1-2.1-1-5.4.9-7.6 1.2-1.4 2.5-1.7 3.3-1.7 1.7 0 3.2 1.2 4 3 .1.2.1.5.1.7-.3 1.9-.6 3.7-1.1 5.5 0 .2-.1.4-.3.5-1.1 1.4-2.3 2.1-3.5 2.1zm.8-9.1c-.5 0-.9.4-1.2.8-1.1 1.3-1.1 3.4-.5 4.7.2.5.6.9.8.9.2 0 .7-.2 1.2-.8.4-1.5.7-3 .9-4.5-.2-.7-.7-1.1-1.2-1.1zM73 90.7c-1.1 0-2.4-.8-2.5-3-.2-3 2-9.4 5.2-9.7h.3c.8 0 1.9.5 2.2 1.9.7 2.7-1.7 9.4-3.6 10.4-.5.3-1.1.4-1.6.4zm2.6-9.6c-.3.3-.7.9-1.2 1.9-.9 2-1.2 4-1.1 4.9.8-.7 2.3-5 2.3-6.8z"/><path class="st0" d="M60.3 93.6c-1.6 0-3.1-.9-4.4-2.6-.1-.2-.3-.4-.4-.6l-.1-.1c-.1-.2-.2-.5-.2-.7V53.9c0-.4.2-.8.5-1.1.3-.3.8-.4 1.2-.3.3.1.7.1 1.2.1 3 0 7.2-1.6 8.1-3 .1-.2.2-.8 0-1.6-.3-.9-.7-1.4-.9-1.5-.5-.3-1.8.1-3 .4-1.1.3-2.2.7-3.3.6-1-.1-2-.4-2.8-.7-.5-.2-.9-.7-.9-1.3v-16c0-.4.2-.8.5-1.1.2-.2.4-.3.7-.5 1.2-.7 2.5-1.1 4.2-1.1 1.2 0 2.4.2 3.5.4 1.2.2 2.3.4 3.4.3 2.7-.1 5.2-1.8 7.9-3.7 3-2 6.1-4.1 9.8-4.1.6 0 1.2.1 1.8.2.2 0 .4.1.6.3 5.8 4.8 10.4 11 13.4 17.8.1.1.1.3.1.4.1.6.1 1.1.1 1.5-.1 4.4 0 7.5.3 10.7.4 4.5-1 6-4.2 8.2-.4.3-1 .8-1.6 1.3-1.9 1.7-4.1 3.5-6.2 3.5h-.5c-2.8-.4-4.9-3.5-6.8-6.3-.6-.8-1.1-1.6-1.6-2.3.1.3.1.7.1 1 .1 2-.2 3.2-1 4.1-1.1 1.1-2.6 1.1-4.2 1.1h-.1c.4.6.5.8.5.9 1.8 4.9-.6 9.4-2.8 13.3l-.4.8c-.3.5-.7 1.5-1.2 2.7-3.2 7.5-6.7 14.7-11.3 14.7zm-2.2-4.4l.1.1c.8 1 1.5 1.5 2.1 1.5 3.2 0 7-9.1 8.7-13 .5-1.3 1-2.3 1.3-2.9l.4-.8c1.9-3.5 4-7.2 2.6-10.9-.1-.2-.6-1-.9-1.4-1.2-1.9-1.4-2.2-1-2.9.2-.5.8-.8 1.4-.8.5 0 .8.2 1.1.3.1 0 .1.1.2.1h1.3c.9 0 1.9 0 2.2-.3.1-.1.4-.5.3-2 0-.7-.2-1.5-.4-2.2-.3-1.3-.6-2.2 0-2.9.3-.4.8-.6 1.3-.6.7 0 1.4.4 2.6 1.5 1 .9 2 2.3 3.1 3.9 1.5 2.2 3.3 4.9 4.9 5.1h.1c1.1 0 3.1-1.7 4.4-2.8.7-.6 1.3-1.1 1.8-1.5 2.8-1.9 3.3-2.6 3.1-5.7-.3-3.4-.4-6.6-.3-11v-.9c-2.8-6.3-7-11.9-12.2-16.4-.3 0-.6-.1-.9-.1-2.8 0-5.4 1.8-8.2 3.7-2.9 1.9-5.9 3.9-9.3 4.1-1.3.1-2.7-.1-4-.3-1.1-.2-2.1-.3-3.1-.3s-1.9.2-2.6.6v14.3c.4.1.8.2 1.1.2h.1c.6 0 1.4-.2 2.2-.5 1-.3 2.1-.6 3.2-.6.7 0 1.3.1 1.8.4 1 .5 1.9 1.7 2.3 3.2.4 1.4.3 2.8-.2 3.8-1.7 2.9-7.4 4.4-10.6 4.4v33.6z"/><path class="st0" d="M56.7 95.6c-21.2 0-38.4-17.2-38.4-38.4s17.2-38.4 38.4-38.4c.8 0 1.4.6 1.4 1.4v74.1c0 .7-.6 1.3-1.4 1.3zm-1.4-74C36.3 22.3 21 38 21 57.2c0 19.2 15.3 34.9 34.3 35.6V21.6z"/><path class="st0" d="M56.7 105.4c-.8 0-1.4-.6-1.4-1.4V10.4c0-.8.6-1.4 1.4-1.4C68 9 79 13 87.7 20.2l-1.8 2.1C78.1 15.8 68.2 12 58.1 11.7v90.8c15.5-.5 29.8-8.9 37.8-22.2l.9-1.3.1-.1c.8-1.8 1.3-2.7 1.7-3.7.9-2 1.6-4.1 2.2-6.3l2.7.7c-.6 2.3-1.4 4.5-2.3 6.7-.4 1.1-.9 2.1-1.8 4-.1.2-.2.3-.3.4l-.7 1.1c-8.8 14.6-24.8 23.6-41.7 23.6z"/><path class="st0" d="M56.7 105.4c-17 0-32.9-9-41.6-23.6l-.7-1c-.1-.1-.2-.3-.3-.4-.9-1.9-1.4-2.9-1.8-4.1-.9-2.1-1.7-4.3-2.3-6.6-.5-1.8-.9-3.7-1.1-5.5-.3-2.3-.5-4.6-.5-6.9 0-6.6 1.3-13.1 4-19.1 3-6.9 7.6-13 13.4-17.8C34.4 13 45.4 9 56.7 9c.8 0 1.4.6 1.4 1.4V104c0 .8-.6 1.4-1.4 1.4zM16.6 79l.1.1.8 1.3c8 13.4 22.4 21.8 37.8 22.3V11.8c-10.2.3-20 4-27.8 10.6-5.4 4.5-9.8 10.4-12.6 16.8-2.5 5.7-3.7 11.8-3.7 18 0 2.1.1 4.2.4 6.2 0 .2.1.3.1.5.3 1.7.6 3.4 1 5 .6 2.2 1.3 4.3 2.2 6.3.4 1.1.8 2 1.7 3.8z"/><path class="st0" d="M56.7 81.9C43.1 81.9 32 70.8 32 57.2s11.1-24.7 24.7-24.7c.8 0 1.4.6 1.4 1.4v46.6c0 .8-.6 1.4-1.4 1.4zm-1.4-46.5c-11.4.7-20.5 10.2-20.5 21.9 0 11.6 9.1 21.1 20.5 21.8V35.4z"/><path class="st0" d="M56.7 71.6c-7.9 0-14.4-6.4-14.4-14.4s6.4-14.4 14.4-14.4c.8 0 1.4.6 1.4 1.4v25.9c0 .7-.6 1.3-1.3 1.4 0 .1-.1.1-.1.1zm-1.4-25.9c-5.8.7-10.2 5.6-10.2 11.5S49.6 68 55.3 68.7v-23z"/></g></svg>