<svg xmlns="http://www.w3.org/2000/svg" viewBox="0 0 113.4 113.4"><g><circle transform="rotate(-4.731 48.85 50.228)" cx="48.8" cy="50.2" r="21"/><path d="M97.9 12.5c-4.6-4.6-13.6-4.2-25.1 1.3-.1 0-.1.1-.2.1-1-1-2.4-1.7-3.9-1.9-1.8-.3-3.7.2-5.1 1.3-1.5 1.1-2.4 2.7-2.7 4.6-.1.9-.1 1.9.2 2.7-2.5 1.7-5.1 3.5-7.7 5.5 1.6.3 3.2.8 4.7 1.4 1.7-1.2 3.3-2.4 5-3.5 1 .9 2.3 1.5 3.7 1.7.3 0 .7.1 1 .1 1.5 0 2.9-.5 4.2-1.4 1.5-1.1 2.4-2.7 2.7-4.6.1-.8.1-1.6-.1-2.4 5.8-2.7 10.8-4.1 14.6-4.1 2.6 0 4.7.7 6.1 2 3.4 3.4 2.8 11.4-1.4 21.4-5 11.2-13.6 23.3-24.4 34.1-3.8 3.8-7.7 7.3-11.8 10.5-1.5-1.4-3.4-2.4-5.6-2.7-2.7-.4-5.4.3-7.6 2-2.2 1.7-3.6 4.1-4 6.8-.2 1.7-.1 3.4.5 5-1.9 1-3.8 1.9-5.6 2.7-10 4.3-18 4.8-21.4 1.4-3.3-3.3-2.5-10.8 2.1-20.6.3-.7.6-1.3 1-2 .2 0 .4.1.6.1.3 0 .7.1 1 .1 3.4 0 6.4-2.5 6.9-6 .3-1.8-.2-3.7-1.3-5.1l-.3-.3c.7-1.1 1.5-2.1 2.3-3.2-.6-1.5-1.1-3.1-1.4-4.7-1.5 1.9-2.9 3.8-4.2 5.8-.3-.1-.6-.2-1-.2-1.8-.3-3.7.2-5.1 1.3-1.5 1.1-2.4 2.7-2.7 4.6-.3 1.8.2 3.7 1.3 5.1.2.2.3.4.5.6-.4.8-.8 1.5-1.1 2.3-5.5 11.6-6 20.5-1.3 25.1 2.2 2.2 5.5 3.4 9.6 3.4h1.2c4.3-.2 9.3-1.5 14.9-3.9 2-.9 4.1-1.8 6.1-2.9 1.6 1.8 3.8 2.9 6.2 3.3.5.1 1 .1 1.5.1 2.2 0 4.4-.7 6.2-2.1 2.2-1.7 3.6-4.1 4-6.8.3-2 0-4-.8-5.7 4.2-3.3 8.3-7 12.2-10.9 11.2-11.2 20.1-23.8 25-35.4 2.4-5.6 3.7-10.6 3.9-14.9.2-5-1-8.7-3.4-11.1zm-27.3 6.7c-.1.8-.5 1.5-1.2 2-.6.5-1.4.7-2.2.6-1.6-.2-2.8-1.7-2.5-3.4.1-.8.5-1.5 1.2-2 .5-.4 1.1-.6 1.8-.6h.4c.8.1 1.5.5 2 1.2.4.7.6 1.5.5 2.2zm-55 47.5c.1-.8.5-1.5 1.2-2 .5-.4 1.1-.6 1.8-.6h.4c.8.1 1.5.5 2 1.2.5.6.7 1.4.6 2.2-.2 1.6-1.7 2.8-3.4 2.5-1.7-.2-2.8-1.7-2.6-3.3zm41.3 23c-.2 1.7-1.1 3.2-2.5 4.2s-3 1.5-4.7 1.2c-3.5-.5-5.9-3.7-5.4-7.2.4-3.2 3.2-5.5 6.3-5.5.3 0 .6 0 .9.1 3.5.5 5.9 3.7 5.4 7.2z"/></g></svg>