<svg version="1.1" id="Layer_1" xmlns="http://www.w3.org/2000/svg" x="0" y="0" viewBox="0 0 113.4 113.4" xml:space="preserve"><style>.st0{fill:none;stroke:#010101;stroke-width:2;stroke-linecap:round;stroke-linejoin:round;stroke-miterlimit:10}</style><g><circle class="st0" cx="56.3" cy="60" r="33.9"/><path class="st0" d="M47.7 27.2s5.7 8.2 3.8 12.3c-1.8 4.1-5.5 3.3-6.8 4.1s-9.4 1.5-6.9 4 6.8 2.7 9.6 5.6C50.2 56 49 60 51.9 60c2.8 0 4.8-5.4 7.5-2.7s-1.5 9.5-4.9 12.9c-3.4 3.4-.4 5.5-1.9 7.1-1.5 1.5-3.8 3-3.8 5.9 0 3-6.8 5.9-7.7.9-.9-5 1.5-12.4-.7-14.6-2.2-2.2-6.1-7.6-4.5-12.5 1.6-5-9.5-12.9-9.5-12.9M89.2 51.6s-9 .3-11.9-1.4-9.1 1.8-8 8.2c1.1 6.4 6.1 2.8 9.9 6.6 3.8 3.8-2 8 0 10s3.3 4 1.4 8.7M70.1 29s-7.6 6.6-6 10c1.6 3.4 3.6 2.3 6 .8 2.5-1.4 2.8-3 5.6-1.4s7.6.9 7.6.9"/><g><path class="st0" d="M5.6 57.3C6.9 26.6 36.7 2.5 68.8 11.1M82.5 102.3c-27.6 17.4-66.1 3.9-75.1-29.7M82.4 17c26.4 16.3 32.6 54.5 8.9 78.2"/><path class="st0" d="M64 3.5l4.8 7.6-8.4 4.8M100.5 94.9l-9.1.3.2-9.6M3 80.7l4.3-8 8.2 5"/></g></g></svg>