<svg version="1.1" id="Layer_1" xmlns="http://www.w3.org/2000/svg" x="0" y="0" viewBox="0 0 113.4 113.4" xml:space="preserve"><style>.st0{fill:none;stroke:#000;stroke-width:3;stroke-linecap:round;stroke-miterlimit:10}</style><g><path class="st0" d="M31.2 25c-10-9.6 3.6-19.7 3.6-19.7S48.4 15.4 38.3 25"/><path id="XMLID_288_" class="st0" d="M104.5 110.2H65c0-5.2 4.3-9.5 9.5-9.5h23.1c3.8 0 6.9 3.1 6.9 6.9v2.6z"/><path class="st0" d="M60.6 75.7c-.6-8.9-6.5-17.1-14.4-21.3-2.8-1.5-4.6-4.3-4.6-7.4V36.5c0-.5.4-1 1-1 1 0 1.9-.9 1.9-1.9v-2.1c0-1-.9-1.9-1.9-1.9H27c-1 0-1.9.9-1.9 1.9v2.1c0 1 .9 1.9 1.9 1.9h1v11.3c0 3.1-1.8 6-4.6 7.4-8.6 4.2-14.5 13-14.5 23.2 0 5.7 1.9 11 5 15.3 2.6 3.6 6.9 5.6 11.3 5.6h19.1c4.5 0 8.8-2.1 11.4-5.7 3.4-4.7 5.3-10.6 4.9-16.9zM28 35.5h5.2M28 42.5h5.2M41.6 42.5h39.8M81.4 100.7V20.5c0-1.9 1.5-3.4 3.4-3.4s3.4 1.5 3.4 3.4v80.2"/></g></svg>