<svg xmlns="http://www.w3.org/2000/svg" viewBox="0 0 113.4 113.4"><g><path d="M61.8 77.2c-17 0-30.8-13.8-30.8-30.8s13.8-30.8 30.8-30.8c1.9 0 3.4 1.5 3.4 3.4s-1.5 3.4-3.4 3.4c-13.1.1-23.8 10.9-23.8 24 0 13.2 10.7 23.9 23.9 23.9s23.9-10.7 23.9-23.9c0-10.1-6.4-19.2-16-22.5-1.8-.6-2.7-2.6-2.1-4.4.6-1.8 2.6-2.7 4.4-2.1 12.3 4.3 20.6 16 20.6 29-.1 17-13.9 30.8-30.9 30.8z"/><path d="M61.8 57.3c-6 0-10.9-4.9-10.9-10.9s4.9-10.9 10.9-10.9 10.9 4.9 10.9 10.9-4.8 10.9-10.9 10.9zm0-14.9c-2.2 0-4 1.8-4 4s1.8 4 4 4 4-1.8 4-4-1.7-4-4-4z"/><path d="M61.8 42.4c-1.9 0-3.4-1.5-3.4-3.4V14.3c0-1.9 1.5-3.4 3.4-3.4s3.4 1.5 3.4 3.4V39c.1 1.8-1.5 3.4-3.4 3.4zM95.3 8.9H28.4c-1.9 0-3.4-1.5-3.4-3.4S26.5 2 28.4 2h66.9c1.9 0 3.4 1.5 3.4 3.4s-1.5 3.5-3.4 3.5zM34.5 86.9c-1.9 0-3.4-1.5-3.4-3.4v-37c0-1.9 1.5-3.4 3.4-3.4s3.4 1.5 3.4 3.4v37c.1 1.8-1.5 3.4-3.4 3.4zM51.4 109.8H17.7c-1.9 0-3.4-1.5-3.4-3.4V92.7c0-1.9 1.5-3.4 3.4-3.4h33.7c1.9 0 3.4 1.5 3.4 3.4v13.6c0 1.9-1.5 3.5-3.4 3.5zm-30.3-6.9h26.8v-6.7H21.1v6.7zM89.2 109.8c-1.2 0-2.3-.6-2.9-1.6l-11-17.8c-1-1.6-.5-3.7 1.1-4.7s3.7-.5 4.7 1.1l8.1 13 8.1-13c1-1.6 3.1-2.1 4.7-1.1s2.1 3.1 1.1 4.7l-11 17.8c-.6.9-1.8 1.6-2.9 1.6z"/><path d="M89.2 109.8c-1.9 0-3.4-1.5-3.4-3.4v-60c0-1.9 1.5-3.4 3.4-3.4s3.4 1.5 3.4 3.4v59.9c0 1.9-1.5 3.5-3.4 3.5z"/></g></svg>