<svg xmlns="http://www.w3.org/2000/svg" viewBox="0 0 113.4 113.4"><g><path d="M69 88.8c-.8 0-1.6-.3-2.2-1l-9.4-10.4c-1.1-1.2-1-3.1.2-4.1 1.2-1.1 3.1-1 4.2.2l9.4 10.4c1.1 1.2 1 3.1-.2 4.1-.6.6-1.3.8-2 .8zM84.6 106H60.4c-1.6 0-2.9-1.3-2.9-2.9 0-1.6 1.3-2.9 2.9-2.9h17.5l-5.7-6.3c-1.1-1.2-1-3.1.2-4.1 1.2-1.1 3.1-1 4.1.2l10.2 11.2c.8.9 1 2.1.5 3.2-.4.9-1.5 1.6-2.6 1.6zM43.5 106H14.3c-1.6 0-2.9-1.3-2.9-2.9V25.7c0-1.2.7-2.3 1.9-2.7 1.1-.4 2.4-.1 3.2.8l29.7 32.7c1.1 1.2 1 3.1-.2 4.1-1.2 1.1-3.1 1-4.2-.2L17.3 33.3v66.8h26.2c1.6 0 2.9 1.3 2.9 2.9 0 1.7-1.3 3-2.9 3z"/><path d="M51.7 104.5c-1 0-2-.5-2.5-1.4l-6.1-9.9c-.9-1.4-.4-3.2.9-4 1.4-.9 3.2-.4 4 .9l3.6 5.9 3.7-5.9c.9-1.4 2.7-1.8 4-.9 1.4.9 1.8 2.7.9 4l-6.1 9.9c-.4.9-1.4 1.4-2.4 1.4z"/><path d="M51.7 104.5c-1.6 0-2.9-1.3-2.9-2.9V53.3c0-1.6 1.3-2.9 2.9-2.9s2.9 1.3 2.9 2.9v48.3c.1 1.6-1.3 2.9-2.9 2.9zM65.2 92.2c-.8 0-1.6-.3-2.2-1-1.1-1.2-1-3.1.2-4.1l27.1-24.7c1.2-1.1 3.1-1 4.2.2s1 3.1-.2 4.1L67.2 91.5c-.5.5-1.2.7-2 .7z"/><g><path d="M80.8 78.1c-.8 0-1.6-.3-2.2-1L65.5 62.7c-1.1-1.2-1-3.1.2-4.1 1.2-1.1 3.1-1 4.1.2l13.1 14.4c1.1 1.2 1 3.1-.2 4.1-.5.6-1.2.8-1.9.8z"/><path d="M80.8 78.1c-.3 0-.5 0-.8-.1l-11.5-3.3c-1.6-.4-2.5-2.1-2-3.6.4-1.6 2.1-2.5 3.6-2l7 2-1.4-7.1c-.3-1.6.8-3.1 2.4-3.4 1.6-.3 3.1.8 3.4 2.4l2.1 11.8c.2 1-.2 2-.9 2.7-.5.4-1.2.6-1.9.6z"/></g><g><path d="M60.4 59.5c-1 0-1.9-.5-2.5-1.3-.9-1.4-.5-3.2.9-4.1 2.7-1.8 4.7-4.5 5.5-7.6.9-3.3.4-6.8-1.3-9.8-1.7-3-4.6-5.1-7.9-6-3.3-.9-6.8-.4-9.8 1.3-3 1.7-5.1 4.6-6 7.9-1.1 4.3 0 8.8 3 12 1.1 1.2 1 3.1-.2 4.2s-3.1 1-4.2-.2c-4.3-4.7-5.9-11.3-4.3-17.5 1.3-4.9 4.4-8.9 8.7-11.5 4.3-2.5 9.4-3.2 14.3-2 4.9 1.3 8.9 4.4 11.5 8.7 2.5 4.3 3.2 9.4 2 14.3-1.2 4.6-4 8.5-8 11-.6.5-1.2.6-1.7.6z"/><path d="M51.7 47.2c-1.1 0-2.1-.4-2.8-1.2-.7-.7-1.2-1.8-1.2-2.8 0-1.1.4-2.1 1.2-2.8 1.5-1.5 4.1-1.5 5.6 0 .7.7 1.2 1.8 1.2 2.8 0 1.1-.4 2.1-1.2 2.8-.7.8-1.7 1.2-2.8 1.2zM71.2 28.8c-.8 0-1.6-.3-2.2-1-5.6-6.3-14.2-9-22.5-7.1-3.3.8-6.3 2.2-9 4.3-1.3 1-3.1.8-4.1-.5-1-1.3-.8-3.1.5-4.1 3.4-2.6 7.2-4.4 11.3-5.4 7.6-1.8 15.5-.3 21.9 3.7L67 18c-.2-1.6.9-3.1 2.5-3.3 1.6-.2 3.1.9 3.3 2.5l1.2 8.3c.2 1.3-.5 2.5-1.7 3.1-.3.1-.7.2-1.1.2z"/></g></g></svg>