<svg xmlns="http://www.w3.org/2000/svg" viewBox="0 0 113.4 113.4"><g><path d="M109.7 64.1c-.3-11.5-9.7-20.7-21.2-20.7h-.3c-4.1.1-8.1 1.3-11.5 3.6l-42 31.7c-2.7 2.1-5.9 3.2-9.2 3.3H25c-4.7 0-9.1-1.9-12.4-5.2-3.3-3.4-5-7.8-4.9-12.5.2-9.5 8.1-17.1 17.6-16.9 3.3 0 8 1.8 10.7 3.5l-1.1 1.5c-.5.7-.4 1.6.3 2.1.5.4 1.3.4 1.8 0 .2 1.1.7 2.2 1.7 3l4.5 3.7c1 .8 2.4.6 3.1-.4l.3-.5 2.7 2c.4.3 1.1.2 1.4-.2.3-.4.2-1.1-.2-1.4l-2.7-2 1.6-2.1 2.7 2c.4.3 1.1.2 1.4-.2.3-.4.2-1.1-.2-1.4l-2.7-2 .3-.4c.7-1 .5-2.4-.5-3.1l-4.8-3.2c-1-.7-2.2-.9-3.3-.8.2-.6 0-1.3-.5-1.7-.7-.5-1.6-.4-2.1.3l-1.3 1.7c-3.2-2.1-8.7-4.2-13-4.3h-.3c-11.4 0-20.9 9.2-21.2 20.7-.1 5.8 2 11.2 6 15.3 4 4.1 9.4 6.4 15.2 6.4h.6c4.1-.1 8-1.5 11.4-4.1l41.8-31.5c2.8-1.9 6-2.9 9.4-2.9h.3c9.4 0 17.1 7.5 17.3 16.9.1 4.7-1.6 9.2-4.9 12.5-3.3 3.4-7.7 5.2-12.4 5.2h-.5c-3.2-.1-6.3-1.1-9-3l-8.5-6c1.5-1.7 1.7-4.2.4-6l-1.6-2.4c-.9-1.2-2.4-1.4-3.4-.6l-7.2 6.1c-1 .8-1 2.3-.1 3.2l2.1 2c1.8 1.7 4.7 1.8 6.6.2l9.3 6.5c3.4 2.3 7.2 3.6 11.1 3.7h.6c5.8 0 11.1-2.3 15.2-6.4 4.1-4 6.2-9.4 6.1-15.2zM39.7 51c.4-.6 1.2-.7 1.8-.3.6.4.7 1.2.3 1.8-.4.6-1.2.7-1.8.3-.6-.4-.7-1.2-.3-1.8z"/><path d="M85 71.4c-.6 0-1.2-.5-1.3-1.1l-.6-4.4-1.2 4.6c-.2.6-.7.9-1.2.9-.6 0-1.1-.4-1.2-.9l-1.3-4.6-.6 4.4c-.1.7-.8 1.2-1.5 1.1-.7-.1-1.2-.7-1.1-1.4l1.5-10.6c.1-.6.6-1.1 1.2-1.1s1.2.4 1.3.9l1.7 6.1 1.7-6.1c.2-.6.7-1 1.3-.9.6 0 1.1.5 1.2 1.1L86.3 70c.1.7-.4 1.4-1.1 1.4H85zM28.7 71.2H24c-.7 0-1.3-.6-1.3-1.3V59.3c0-.7.6-1.3 1.3-1.3h4.7c.7 0 1.3.6 1.3 1.3s-.6 1.3-1.3 1.3h-3.4v8h3.4c.7 0 1.3.6 1.3 1.3 0 .7-.6 1.3-1.3 1.3z"/><path d="M27.2 65.9H24c-.7 0-1.3-.6-1.3-1.3s.6-1.3 1.3-1.3h3.2c.7 0 1.3.6 1.3 1.3s-.6 1.3-1.3 1.3zM91.2 71.4c-1 0-4.4-.5-4.4-6.6s3.4-6.6 4.4-6.6c1.7 0 3.1 1.1 3.8 3 .2.7-.1 1.4-.8 1.7-.7.2-1.4-.1-1.7-.8-.5-1.3-1.2-1.3-1.4-1.3-1.7 0-1.8 3.1-1.8 4 0 .9.1 4 1.8 4 .2 0 .9 0 1.4-1.2.3-.7 1-1 1.7-.7.7.3 1 1 .7 1.7-.6 1.8-2 2.8-3.7 2.8z"/><g><path d="M99 59.7h-2.8c-.6 0-1.1-.5-1.1-1.1 0-1.8 1.1-2.8 1.9-3.5.7-.6.9-.8.9-1.2 0-.2-.2-.4-.3-.4-.2 0-.3.2-.3.4 0 .6-.5 1.1-1.1 1.1-.6 0-1.1-.5-1.1-1.1 0-1.4 1.1-2.5 2.5-2.5s2.5 1.1 2.5 2.5-.9 2.2-1.6 2.8c-.3.3-.6.5-.8.8H99c.6 0 1.1.5 1.1 1.1s-.5 1.1-1.1 1.1z"/></g></g></svg>