<svg version="1.1" id="Layer_1" xmlns="http://www.w3.org/2000/svg" x="0" y="0" viewBox="0 0 113.4 113.4" xml:space="preserve"><style>.st0{fill:none;stroke-width:3;stroke-linecap:round}.st0,.st1{stroke:#000;stroke-miterlimit:10}</style><g><circle transform="rotate(-3.18 52.212 48.058) scale(1.00004)" class="st0" cx="52.2" cy="48.1" r="43.6"/><path class="st0" d="M92.6 80.3l15.9 15.9c2.3 2.3 2.3 5.9 0 8.2-2.3 2.3-5.9 2.3-8.2 0L84.5 88.5M70.3 96.1c13.9-5 25-16.1 30-30M54.4 37.4c5.8 1.6 11.9 1.3 17.8-1.2s6.6-7.5 6.6-7.5c.8-3-1.3-5.8-4-5.4-4.3.6-10.5 1-16.8-.6-6.3-1.6-11.6-4.9-15.1-7.5-2.2-1.7-5.3-.2-6.1 2.8 0 0-1.7 4.8 2.2 9.8 4 5.1 9.3 8.2 15.1 9.6h.3zM43.7 54.9c-.5-5.4-2.7-10.5-6.7-14.6s-8.5-3.2-8.5-3.2c-2.8.3-4.5 2.9-3.3 5.1 1.9 3.4 4.2 8.6 4.9 14.4.7 5.8-.4 11.3-1.5 15.1-.7 2.4 1.5 4.6 4.3 4.2 0 0 4.6-.1 7.5-5 3-5 4-10.4 3.3-15.8v-.2zM73.1 63.7c4.7-.8 9-3.1 12.4-7 3.3-3.8 2.2-7.7 2.2-7.7-.5-2.4-2.9-3.7-4.7-2.5-2.9 1.9-7.2 4.3-12.3 5.3-5.1 1-10 .4-13.4-.3-2.1-.4-3.9 1.7-3.4 4.1 0 0 .4 4 4.9 6.3 4.6 2.3 9.5 2.7 14.1 1.7l.2.1zM65.3 57.9c4.8.8 9.5-.1 13.4-2.7"/><path class="st1" d="M55.9 27.2c-6-1.7-11-4.6-14.6-7.2-.1.8-.1 2.7 1.5 4.8 3.1 4 7.4 6.7 12.4 7.9l.4.1c1 .3 2 .5 3.1.6-1.4-1.8-2.4-3.9-2.8-6.2zM35 56.4c1.1-.9 2.4-1.6 3.8-2-.6-4.1-2.4-7.8-5.2-10.8-1-1.1-2.1-1.5-2.9-1.7 1.8 3.6 3.7 8.6 4.4 14.1-.2.1-.2.3-.1.4z"/></g></svg>