<svg xmlns="http://www.w3.org/2000/svg" viewBox="0 0 113.4 113.4"><g><path d="M24.1 54l-2.8-.8c-.5-.1-.9-.5-1-1l-.8-2.8c-.4-1.5-2.5-1.5-2.9 0l-.8 2.8c-.1.5-.5.9-1 1l-2.9.8c-1.5.4-1.5 2.5 0 2.9l2.8.8c.5.1.9.5 1 1l.8 2.8c.4 1.5 2.5 1.5 2.9 0l.8-2.8c.1-.5.5-.9 1-1l2.8-.8c1.6-.4 1.6-2.5.1-2.9zM45.7 93l-2.7-.9c-.5-.1-.9-.5-1-1l-.8-2.8c-.4-1.5-2.5-1.5-2.9 0l-.8 2.8c-.1.5-.5.9-1 1l-3 .9c-1.5.4-1.5 2.5 0 2.9l2.8.8c.5.1.9.5 1 1l.8 2.8c.4 1.5 2.5 1.5 2.9 0l.8-2.8c.1-.5.5-.9 1-1l2.8-.8c1.6-.4 1.6-2.5.1-2.9zM53.6 13.8l-2.7-.8c-.5-.1-.9-.5-1-1L49 9.2c-.4-1.5-2.5-1.5-2.9 0l-.8 2.8c-.1.5-.5.9-1 1l-2.8.8c-1.5.4-1.5 2.5 0 2.9l2.8.8c.5.1.9.5 1 1l.8 2.8c.4 1.5 2.5 1.5 2.9 0l.8-2.8c.1-.5.5-.9 1-1l2.8-.8c1.5-.4 1.5-2.5 0-2.9zM88.2 44l.8-2.8c.1-.5.5-.9 1-1l2.8-.8c1.5-.4 1.5-2.5 0-2.9l-2.8-.9c-.5-.1-.9-.5-1-1l-.8-2.8c-.4-1.5-2.5-1.5-2.9 0l-.8 2.8c-.1.5-.5.9-1 1l-2.8.8c-1.5.4-1.5 2.5 0 2.9l2.8.8c.5.1.9.5 1 1l.8 2.8c.4 1.6 2.4 1.6 2.9.1zM98 71.8l-2.7-.8c-.5-.1-.9-.5-1-1l-.8-2.8c-.4-1.5-2.5-1.5-2.9 0l-.8 2.8c-.1.5-.5.9-1 1l-2.8.8c-1.5.4-1.5 2.5 0 2.9l2.8.8c.5.1.9.5 1 1l.8 2.8c.4 1.5 2.5 1.5 2.9 0l.8-2.8c.1-.5.5-.9 1-1l2.8-.8c1.4-.4 1.4-2.5-.1-2.9zM30.8 75c-.4-1.1-1.6-1.6-2.7-1.2-1.1.4-1.6 1.6-1.2 2.7.3.8 1.1 1.4 1.9 1.4.2 0 .5 0 .7-.1 1.1-.5 1.7-1.7 1.3-2.8zM33.1 87.6c1.1-.4 1.6-1.6 1.2-2.7-.4-1.1-1.6-1.6-2.7-1.2-1.1.4-1.6 1.6-1.2 2.7.3.8 1.1 1.4 1.9 1.4.4-.1.6-.2.8-.2zM27.1 65.1c-.4-1.1-1.6-1.6-2.7-1.2-1.1.4-1.6 1.6-1.2 2.7.3.8 1.1 1.4 1.9 1.4.2 0 .5 0 .7-.1 1.2-.6 1.7-1.8 1.3-2.8zM28.3 39.7c.4.3.8.4 1.2.4.6 0 1.3-.3 1.7-.8.7-.9.5-2.2-.4-2.9-.9-.7-2.2-.5-2.9.4-.7 1-.5 2.2.4 2.9zM33.8 32.4c.4.3.8.4 1.2.4.6 0 1.3-.3 1.7-.8.7-.9.5-2.2-.4-2.9-.9-.7-2.2-.5-2.9.4-.7.9-.5 2.2.4 2.9zM22.9 47.1c.4.3.8.4 1.2.4.6 0 1.3-.3 1.7-.8.7-.9.5-2.2-.4-2.9-.9-.7-2.2-.5-2.9.4-.7.9-.5 2.2.4 2.9zM39.2 25c.4.3.8.4 1.2.4.6 0 1.3-.3 1.7-.8.7-.9.5-2.2-.4-2.9-.9-.7-2.2-.5-2.9.4-.7 1-.5 2.3.4 2.9zM56.9 18.5c-1.1-.4-2.3 0-2.7 1.1-.5 1 0 2.3 1.1 2.7.3.1.5.2.8.2.8 0 1.6-.5 1.9-1.3.5-1 0-2.3-1.1-2.7zM77.3 27.2c-1.1-.4-2.3 0-2.7 1.1-.5 1.1 0 2.3 1.1 2.7.3.1.5.2.8.2.8 0 1.6-.5 1.9-1.3.5-1 0-2.2-1.1-2.7zM67.1 22.9c-1.1-.4-2.3 0-2.7 1.1-.4 1.1 0 2.3 1.1 2.7.3.1.5.2.8.2.8 0 1.6-.5 1.9-1.3.5-1.1 0-2.3-1.1-2.7zM88.6 54c1.1-.1 2-1.1 1.9-2.3-.1-1.1-1.1-2-2.3-1.9-1.1.1-2 1.1-1.9 2.3.1 1.1 1 1.9 2.1 1.9h.2zM89.2 63.3h.2c1.1-.1 2-1.1 1.9-2.3-.1-1.1-1.1-2-2.3-1.9-1.1.1-2 1.1-1.9 2.3.2 1 1.1 1.9 2.1 1.9zM60.5 61.5c-1.1-.3-2.2.4-2.5 1.6-.3 1.1.4 2.2 1.6 2.5.2 0 .3.1.5.1.9 0 1.8-.7 2-1.6.2-1.3-.5-2.4-1.6-2.6zM39.5 60.9c.2 0 .3.1.5.1.9 0 1.8-.6 2-1.6.3-1.1-.4-2.2-1.6-2.5-1.1-.3-2.2.4-2.5 1.6-.2 1 .4 2.2 1.6 2.4zM80.5 66.1c-1.1-.3-2.2.4-2.5 1.6-.3 1.1.4 2.2 1.6 2.5.2 0 .3.1.5.1.9 0 1.8-.7 2-1.6.2-1.2-.5-2.4-1.6-2.6zM70.5 63.8c-1.1-.3-2.2.4-2.5 1.6-.3 1.1.4 2.2 1.6 2.5.2 0 .3.1.5.1.9 0 1.8-.7 2-1.6.2-1.2-.5-2.4-1.6-2.6zM50.4 59.2c-1.1-.3-2.2.4-2.5 1.6-.3 1.1.4 2.2 1.6 2.5.2 0 .3.1.5.1.9 0 1.8-.6 2-1.6.2-1.3-.5-2.4-1.6-2.6zM30.4 54.6c-1.1-.3-2.2.4-2.5 1.6-.3 1.1.4 2.2 1.6 2.5.2 0 .3.1.5.1.9 0 1.8-.6 2-1.6.2-1.3-.5-2.4-1.6-2.6z"/></g></svg>