<svg version="1.1" id="Layer_1" xmlns="http://www.w3.org/2000/svg" x="0" y="0" viewBox="0 0 113.4 113.4" xml:space="preserve"><style>.st0{fill:none;stroke:#000;stroke-width:2;stroke-linecap:round;stroke-linejoin:round;stroke-miterlimit:10}</style><g><path class="st0" d="M91.8 106.9c-1.7-16.2-10.1-31.4-22.3-42.2l-18-15.9c-11-9.7-18.2-22.9-20.2-37.4V9.8H25v1.6c0 .1 0-.1 0 0 1.8 16.3 10.1 31.4 22.3 42.2l18 15.9c11 9.7 18.2 22.9 20.2 37.4v1.6h6.4l-.1-1.6c0-.1 0 .2 0 0z"/><path class="st0" d="M58.4 63.4l-6.9 6.1c-11 9.7-18.2 22.9-20.2 37.4v1.6H25v-1.6c0-.1 0 .1 0 0 1.7-16.2 10.1-31.4 22.3-42.2l6.3-5.6M58.4 54.9l6.9-6.1c11-9.7 18.2-22.9 20.2-37.4V9.8h6.4v1.6c0 .1 0-.1 0 0C90 27.7 81.7 42.8 69.5 53.6l-6.3 5.6M37.7 13h25.5M69.5 13h9.6M40.9 25.8h12.7M60 25.8h15.9M48.8 38.5H60M64.8 38.5h3.1M37.7 105.3h25.5M40.9 92.6h12.7M60 92.6h15.9M48.8 79.9H60M64.8 79.9h3.1M69.5 105.3h9.6"/></g></svg>