<svg xmlns="http://www.w3.org/2000/svg" viewBox="0 0 113.4 113.4"><g><path d="M47.9 38.6c.5-.3.9-.5 1.4-.8l-18.4-29-.6.3C18.1 16.4 10.3 27 6.8 40.8c-1.2 4.8-1.8 9.4-1.7 14l34.5.1c-.2-1.8 0-3.7.5-5.7 1.2-4.6 3.8-8.1 7.8-10.6zm16.7 16.9c.6-2.3.2-4.3-1-6.3s-2.8-3.2-5.1-3.8c-2.2-.6-4.4-.3-6.3.9-2 1.2-3.3 2.9-3.9 5.1-.6 2.2-.2 4.3.9 6.3 1.2 2 2.9 3.3 5.2 3.8 2.3.6 4.3.2 6.3-1 2.1-1.1 3.4-2.8 3.9-5zm6.9-11c1.8 3 2.6 6.2 2.5 9.5l34.5-1.4c-.1-8.9-2.6-17.5-7.5-25.6-5.1-8.5-11.7-14.9-20-19.2L63.7 37.6c3.2 1.4 5.9 3.7 7.8 6.9zm12.9 52.3L67.2 67c-.5.4-1.1.7-1.6 1.1-4.1 2.4-8.4 3.1-13 1.9-1.8-.5-3.5-1.2-5-2.1l-16 30.5c3.8 2.1 8 3.7 12.6 4.9 13.8 3.5 26.8 1.5 39-5.8.4-.2.8-.4 1.2-.7z"/></g></svg>