<svg xmlns="http://www.w3.org/2000/svg" viewBox="0 0 113.4 113.4"><g><path d="M98.6 93.5c-1 0-1.9-.4-2.6-1.2-1.2-1.4-1.1-3.6.3-4.9l6-5.2-6-5.2c-1.4-1.2-1.6-3.4-.3-4.9 1.2-1.4 3.4-1.6 4.9-.3l9 7.8c.8.7 1.2 1.6 1.2 2.6s-.4 1.9-1.2 2.6l-9 7.8c-.7.6-1.5.9-2.3.9z"/><path d="M82.5 98c-5.7 0-7.4-5.7-9.8-13.6l-.7-2.3c-1-3.4-2.3-7.6-3.2-8.7-1 1-2.2 5.2-3.2 8.6l-.7 2.3C62.5 92.3 60.7 98 55 98s-7.4-5.7-9.8-13.6l-.7-2.3c-1-3.4-2.3-7.6-3.2-8.6-1 1-2.2 5.2-3.2 8.6l-.7 2.3C35 92.3 33.3 98 27.5 98c-5.7 0-7.4-5.7-9.8-13.6l-.7-2.3c-1-3.4-2.3-7.6-3.2-8.6-1 1-2.2 5.2-3.2 8.6l-.3 1.1C9.8 85 7.8 86.1 6 85.5 4.2 85 3.1 83 3.7 81.2l.3-1.1c2.4-7.9 4.1-13.7 9.8-13.7 5.7 0 7.4 5.7 9.8 13.6l.7 2.3c1 3.4 2.3 7.6 3.2 8.6 1-1 2.2-5.2 3.2-8.6l.7-2.3c2.4-7.9 4.1-13.7 9.8-13.7 5.7 0 7.4 5.7 9.8 13.7l.7 2.3c1 3.4 2.3 7.6 3.2 8.6 1-1 2.2-5.2 3.2-8.6l.7-2.3c2.4-7.9 4.1-13.7 9.8-13.7 5.7 0 7.4 5.7 9.8 13.7l.7 2.3c1 3.4 2.3 7.6 3.2 8.6 1-1 2.2-5.2 3.2-8.6l.3-1.1c.4-1.5 1.8-2.4 3.3-2.4h18.2c1.9 0 3.4 1.5 3.4 3.4s-1.5 3.4-3.4 3.4H91.9c-2.2 7.3-4 12.4-9.4 12.4z"/><g><path d="M48.6 56.7c-.2 0-.4 0-.7-.1-1.9-.4-3.1-2.2-2.7-4l1.9-9.8c.4-2.3.3-4-.4-4.9-.6-.7-1.7-.9-2.6-.9-3.5 0-5.9 2.5-6.8 7-.4 1.9-2.2 3.1-4 2.7-1.9-.4-3.1-2.2-2.7-4 1.8-9.3 8.2-12.6 13.5-12.6 3.3 0 6.1 1.2 7.9 3.4 2.1 2.5 2.7 6.1 1.8 10.6L52 53.9c-.3 1.6-1.8 2.8-3.4 2.8z"/><path d="M32.1 56.7c-.2 0-.4 0-.7-.1-1.9-.4-3.1-2.2-2.7-4l7.5-38.2c.4-1.9 2.2-3.1 4-2.7 1.9.4 3.1 2.2 2.7 4l-7.5 38.2c-.2 1.6-1.6 2.8-3.3 2.8z"/><g><path d="M67.3 56.7c-1.9 0-7.7 0-8.7-22.9-.1-1.9 1.4-3.5 3.3-3.6 1.9-.1 3.5 1.4 3.6 3.3.3 6.2 1.3 12.7 2.3 15.5 2.3-2.6 6.2-9.6 9.3-16.7.8-1.7 2.8-2.5 4.5-1.8 1.7.8 2.5 2.8 1.8 4.5C74 56.7 69 56.7 67.3 56.7z"/></g></g></g></svg>