<svg version="1.1" id="Layer_1" xmlns="http://www.w3.org/2000/svg" x="0" y="0" viewBox="0 0 113.4 113.4" xml:space="preserve"><style>.st0{fill:none;stroke:#000;stroke-width:3;stroke-linecap:round;stroke-linejoin:round;stroke-miterlimit:10}</style><g><path class="st0" d="M56.7 109.7c-29.3 0-53.1-23.7-53.1-53S27.4 3.6 56.7 3.6s53.1 23.8 53.1 53.1c-.1 29.3-23.8 53-53.1 53z"/><path class="st0" d="M10.5 56.7c0-25.5 20.7-46.2 46.2-46.2 25.5 0 46.2 20.7 46.2 46.2 0 25.5-20.7 46.2-46.2 46.2-25.5 0-46.2-20.7-46.2-46.2z"/><circle class="st0" cx="56.7" cy="56.7" r="22.2"/><path class="st0" d="M55 39.6L51.6 43v10.3l-3.5 3.4"/><path class="st0" d="M43 51.6l3.4-3.5h10.3l3.4-3.4M67 56.7l-3.5 3.4v10.3l-3.4 3.4"/><path class="st0" d="M54.4 69.2l2.9-2.8 9.3.9 2.9-2.8M25.3 68.9c2.3-1 3.5-3.5 3-6-1.4-6.5-.6-13.3 2.4-19.3 1.1-2.3.6-5-1.4-6.5-2.6-2-6.3-1-7.8 1.9-4 8.1-5.1 17.3-3.2 26.1.7 3.3 4 5.1 7 3.8zM22.5 40.4l-1.6-.2M21 52.3l-3.4-.4M27 46.1l2.5.4M28 61.8l-4.6-.6M83 77.7c-2-1.5-4.8-1.3-6.6.4-4.9 4.5-11.2 7.2-17.9 7.6-2.5.2-4.6 2-4.9 4.5-.4 3.2 2.3 6 5.5 5.8 9-.6 17.6-4.2 24.2-10.3 2.4-2.2 2.3-6-.3-8zM59.7 94.5l.6 1.4M70.7 89.8l1.4 3.1M62.4 87.7l-1-2.3M75.4 78.9l1.9 4.4M61.8 23.4c-.3 2.5 1.3 4.8 3.7 5.6 6.3 2 11.8 6.1 15.5 11.7 1.4 2.1 4 3 6.3 2 3-1.3 4-5 2.2-7.7-5-7.5-12.4-13.1-21-15.8-3.1-1-6.3 1-6.7 4.2zM87.9 35.2l.9-1.2M78.3 28l2.1-2.7M80.7 36.2l-1.5 2M66.6 29.3l2.8-3.7M85 63.5c1.1-4.5 1.1-9.2 0-13.7M91.1 67c2-6.7 2-13.9 0-20.5M78.9 56.7h6.9M33.3 74c2.7 3.7 6.3 6.7 10.5 8.8M26.7 76.5c3.8 5.8 9.3 10.4 15.7 13.2M42.4 73.7L38 79"/><circle class="st0" cx="34.4" cy="24.2" r="3.4"/></g></svg>