<svg xmlns="http://www.w3.org/2000/svg" viewBox="0 0 113.4 113.4"><g><path d="M59.1 43.6L39.2 32.1v-5.2c0-1.1-.9-1.9-1.9-1.9-1.1 0-1.9.9-1.9 1.9v5.2L16.5 43l-5.6-3.2c-.9-.5-2.1-.2-2.6.7-.5.9-.2 2.1.7 2.6l5.6 3.2v21.8l-4.4 2.6c-.9.5-1.2 1.7-.7 2.6.4.6 1 1 1.7 1 .3 0 .7-.1 1-.3l4.4-2.6 19.8 11.5c.3.2.6.2 1 .2.3 0 .7-.1 1-.2l20.8-12c.6-.3 1-1 1-1.7v-24c-.2-.6-.5-1.3-1.1-1.6zm-2.9 24.5L37.3 79 18.4 68.1V46.3l18.9-10.9 18.9 10.9v21.8zM23.3 46.9c-1.1 0-1.9.9-1.9 1.9v16.9c0 1.1.9 1.9 1.9 1.9 1.1 0 1.9-.8 1.9-1.9V48.8c0-1.1-.9-1.9-1.9-1.9zm12.3 27.6c.4.6 1 1 1.7 1 .3 0 .7-.1 1-.2l14.6-8.5c.9-.5 1.2-1.7.7-2.6-.5-.9-1.7-1.2-2.6-.7L36.4 72c-1 .4-1.3 1.6-.8 2.5zm57-11.1L78 71.9c-.9.5-1.2 1.7-.7 2.6.4.6 1 1 1.7 1 .3 0 .7-.1 1-.2l14.6-8.5c.9-.5 1.2-1.7.7-2.6-.6-1-1.8-1.3-2.7-.8zM94.5 48l-14.7-8.5c-.9-.5-2.1-.2-2.6.7-.5.9-.2 2.1.7 2.6l14.6 8.5c.3.2.6.3 1 .3.7 0 1.3-.3 1.7-1 .5-.9.2-2-.7-2.6zM106 70.7l-4.4-2.6V45.2c0-.7-.4-1.3-1-1.7L80.8 32.1v-5.2c0-1.1-.9-1.9-1.9-1.9-1.1 0-1.9.9-1.9 1.9v5.2l-16.2 9.4c1.1.8 1.8 2 1.9 3.3l16.2-9.4 18.9 10.9v21.8L78.9 79l-16.2-9.4c-.1 1.3-.8 2.6-1.9 3.3L77 82.4v5.2c0 1 .9 1.9 1.9 1.9 1.1 0 1.9-.9 1.9-1.9v-5.2l18.9-10.9 4.4 2.6c.3.2.6.3 1 .3.7 0 1.3-.3 1.7-1 .5-1 .2-2.2-.8-2.7z"/></g></svg>