<svg xmlns="http://www.w3.org/2000/svg" viewBox="0 0 113.4 113.4"><g><path d="M59.9 103.4c-26.4 0-47.8-21.5-47.8-47.8S33.5 7.8 59.9 7.8s47.8 21.5 47.8 47.8-21.4 47.8-47.8 47.8zm0-89.5c-23 0-41.7 18.7-41.7 41.7s18.7 41.7 41.7 41.7 41.7-18.7 41.7-41.7-18.7-41.7-41.7-41.7z"/><path d="M59.9 94.8c-8.5 0-15.4-6.9-15.4-15.4S51.4 64 59.9 64s15.4 6.9 15.4 15.4-6.9 15.4-15.4 15.4zm0-24.6c-5.1 0-9.3 4.2-9.3 9.3 0 5.1 4.2 9.3 9.3 9.3 5.1 0 9.3-4.2 9.3-9.3 0-5.2-4.2-9.3-9.3-9.3zM80.6 59c-5.5 0-10.6-2.9-13.3-7.7-4.2-7.3-1.7-16.8 5.6-21 2.3-1.3 5-2.1 7.7-2.1 5.5 0 10.6 2.9 13.3 7.7 2.1 3.6 2.6 7.7 1.5 11.7-1.1 4-3.6 7.3-7.2 9.3-2.3 1.4-4.9 2.1-7.6 2.1zm0-24.6c-1.6 0-3.2.4-4.6 1.2-4.4 2.6-5.9 8.2-3.4 12.6 1.6 2.9 4.7 4.6 8 4.6 1.6 0 3.2-.4 4.6-1.2 2.1-1.2 3.7-3.2 4.3-5.6.6-2.4.3-4.9-.9-7-1.7-2.8-4.7-4.6-8-4.6zM39.2 59c-2.7 0-5.3-.7-7.7-2.1-3.6-2.1-6.1-5.4-7.2-9.3-1.1-4-.5-8.1 1.5-11.7 2.7-4.7 7.8-7.7 13.3-7.7 2.7 0 5.3.7 7.7 2.1 7.3 4.2 9.9 13.7 5.6 21-2.6 4.8-7.7 7.7-13.2 7.7zm.1-24.6c-3.3 0-6.4 1.8-8 4.6-1.2 2.1-1.6 4.6-.9 7 .6 2.4 2.2 4.4 4.3 5.6 1.4.8 3 1.2 4.6 1.2 3.3 0 6.4-1.8 8-4.6 2.6-4.4 1-10.1-3.4-12.6-1.4-.8-3-1.2-4.6-1.2zM64.1 34.7c-1 0-1.9-.5-2.5-1.2l-1.8-2.4-1.8 2.4c-1.2 1.5-3.7 1.5-4.9 0L49 27.8c-1-1.4-.7-3.3.6-4.3 1.4-1 3.3-.7 4.3.6l1.8 2.4 1.8-2.4c1.2-1.5 3.7-1.5 4.9 0l1.8 2.4 1.8-2.4c1-1.4 2.9-1.6 4.3-.6s1.6 2.9.6 4.3l-4.2 5.6c-.7.8-1.6 1.3-2.6 1.3zM38.5 80.7c-.4 0-.8-.1-1.2-.2-1.6-.7-2.3-2.5-1.6-4l1.2-2.7-2.9-.3c-1-.1-1.8-.7-2.3-1.5-.5-.8-.5-1.8-.2-2.7l1.2-2.7-2.9-.3c-1.7-.2-2.9-1.7-2.7-3.4.2-1.7 1.7-2.9 3.4-2.7l7 .8c1 .1 1.8.7 2.3 1.5.5.8.5 1.8.2 2.7l-1.2 2.7 2.9.3c1 .1 1.8.7 2.3 1.5.5.8.5 1.8.2 2.7l-2.8 6.5c-.6 1.2-1.7 1.8-2.9 1.8zM81.3 80.7c-1.2 0-2.3-.7-2.8-1.9l-2.8-6.5c-.4-.9-.3-1.9.2-2.7.5-.8 1.3-1.4 2.3-1.5l2.9-.3-1.1-2.7c-.4-.9-.3-1.9.2-2.7.5-.8 1.3-1.4 2.3-1.5l7-.8c1.7-.2 3.2 1 3.4 2.7.2 1.7-1 3.2-2.7 3.4l-2.9.3 1.2 2.7c.4.9.3 1.9-.2 2.7-.5.8-1.3 1.4-2.3 1.5l-3 .4 1.2 2.7c.7 1.6-.1 3.4-1.6 4-.5.2-.9.2-1.3.2z"/></g></svg>