<svg xmlns="http://www.w3.org/2000/svg" viewBox="0 0 113.4 113.4"><g><path d="M35.8 108H13.4c-1 0-1.8-.8-1.8-1.8V83.7c0-1 .8-1.8 1.8-1.8h22.4c1 0 1.8.8 1.8 1.8v22.4c.1 1.1-.7 1.9-1.8 1.9zm-20.5-3.7H34V85.6H15.3v18.7zM87.9 49.4c-.5 0-.9-.2-1.3-.5L70.7 33c-.7-.7-.7-1.9 0-2.6l15.9-15.9c.7-.7 1.9-.7 2.6 0L105 30.4c.7.7.7 1.9 0 2.6L89.2 48.9c-.4.3-.8.5-1.3.5zM74.6 31.7L87.9 45l13.3-13.3-13.3-13.3-13.3 13.3zM102.1 108H73.7c-.6 0-1.2-.3-1.6-.9-.3-.5-.4-1.2-.1-1.8L86.2 77c.6-1.2 2.7-1.2 3.3 0l14.2 28.4c.3.6.3 1.2-.1 1.8-.3.5-.9.8-1.5.8zm-25.4-3.7h22.4L87.9 81.9l-11.2 22.4zM24.6 47.1c-8.1 0-14.6-6.6-14.6-14.6 0-8.1 6.6-14.6 14.6-14.6 8.1 0 14.6 6.6 14.6 14.6.1 8-6.5 14.6-14.6 14.6zm0-25.6c-6 0-11 4.9-11 11 0 6 4.9 11 11 11 6 0 11-4.9 11-11s-4.9-11-11-11zM65 96.8H45.4c-1 0-1.8-.8-1.8-1.8s.8-1.8 1.8-1.8H65c1 0 1.8.8 1.8 1.8s-.8 1.8-1.8 1.8zM24.6 78.3c-1 0-1.8-.8-1.8-1.8V55.7c0-1 .8-1.8 1.8-1.8s1.8.8 1.8 1.8v20.8c.1 1-.8 1.8-1.8 1.8zM65 33.5H45.4c-1 0-1.8-.8-1.8-1.8s.8-1.8 1.8-1.8H65c1 0 1.8.8 1.8 1.8s-.8 1.8-1.8 1.8zM87.9 67.9c-1 0-1.8-.8-1.8-1.8V55.7c0-1 .8-1.8 1.8-1.8s1.8.8 1.8 1.8v10.4c0 1-.8 1.8-1.8 1.8z"/></g></svg>